<svg width="13" height="13" viewBox="0 0 13 13" fill="none" xmlns="http://www.w3.org/2000/svg">
<path d="M11.83 2.1875C11.83 1.73995 11.6522 1.31073 11.3357 0.994258C11.0192 0.67779 10.59 0.5 10.1425 0.5C9.6949 0.5 9.26568 0.67779 8.94921 0.994258L6.16498 3.77849L3.38074 0.994257C3.06427 0.67779 2.63505 0.5 2.1875 0.5C1.73995 0.5 1.31072 0.677789 0.994256 0.994257C0.677788 1.31072 0.5 1.73995 0.5 2.1875C0.5 2.63505 0.677792 3.06427 0.99426 3.38074L3.77849 6.16497L0.99426 8.94921C0.677792 9.26568 0.500002 9.6949 0.500002 10.1425C0.500002 10.59 0.677791 11.0192 0.994259 11.3357C1.31073 11.6522 1.73995 11.83 2.1875 11.83C2.63505 11.83 3.06428 11.6522 3.38074 11.3357L6.16498 8.55146L8.94921 11.3357C9.26568 11.6522 9.6949 11.8299 10.1425 11.8299C10.59 11.8299 11.0192 11.6522 11.3357 11.3357C11.6522 11.0192 11.83 10.59 11.83 10.1425C11.83 9.6949 11.6522 9.26568 11.3357 8.94921L8.55146 6.16498L11.3357 3.38074C11.6522 3.06428 11.83 2.63505 11.83 2.1875Z" stroke="#E7E7E7" stroke-linecap="round" stroke-linejoin="round"/>
</svg>
