<svg width="16" height="15" viewBox="0 0 16 15" fill="none" xmlns="http://www.w3.org/2000/svg">
<path d="M15.125 2.1875C15.125 2.63505 14.9472 3.06428 14.6307 3.38074C14.3143 3.69721 13.8851 3.875 13.4375 3.875H2.1875C1.73995 3.875 1.31072 3.69721 0.994257 3.38074C0.677789 3.06428 0.5 2.63505 0.5 2.1875C0.5 1.73995 0.67779 1.31072 0.994258 0.994257C1.31073 0.677789 1.73995 0.5 2.1875 0.5H13.4375C13.8851 0.5 14.3143 0.677789 14.6307 0.994257C14.9472 1.31072 15.125 1.73995 15.125 2.1875Z" stroke="#E7E7E7" stroke-linecap="round" stroke-linejoin="round"/>
<path d="M15.125 7.1875C15.125 7.63505 14.9472 8.06427 14.6307 8.38074C14.3143 8.69721 13.8851 8.875 13.4375 8.875H2.1875C1.73995 8.875 1.31072 8.69721 0.994257 8.38074C0.67779 8.06427 0.5 7.63505 0.5 7.1875C0.5 6.73995 0.67779 6.31073 0.994258 5.99426C1.31073 5.67779 1.73995 5.5 2.1875 5.5H13.4375C13.8851 5.5 14.3143 5.67779 14.6307 5.99426C14.9472 6.31073 15.125 6.73995 15.125 7.1875Z" stroke="#E7E7E7" stroke-linecap="round" stroke-linejoin="round"/>
<path d="M15.125 12.1875C15.125 12.635 14.9472 13.0643 14.6307 13.3807C14.3143 13.6972 13.8851 13.875 13.4375 13.875H2.1875C1.73995 13.875 1.31072 13.6972 0.994257 13.3807C0.67779 13.0643 0.5 12.635 0.5 12.1875C0.5 11.7399 0.677791 11.3107 0.994258 10.9943C1.31073 10.6778 1.73995 10.5 2.1875 10.5H13.4375C13.8851 10.5 14.3143 10.6778 14.6307 10.9943C14.9472 11.3107 15.125 11.7399 15.125 12.1875Z" stroke="#E7E7E7" stroke-linecap="round" stroke-linejoin="round"/>
</svg>
