<svg width="22" height="21" viewBox="0 0 22 21" fill="none" xmlns="http://www.w3.org/2000/svg">
<path fill-rule="evenodd" clip-rule="evenodd" d="M9.93158 13.8951C9.59921 13.8951 9.32976 13.629 9.32976 13.3007V13.299C9.32976 13.6273 9.59921 13.8934 9.93158 13.8934H12.339C12.6714 13.8934 12.9409 13.6273 12.9409 13.299V13.3007C12.9409 13.629 12.6714 13.8951 12.339 13.8951H9.93158ZM16.2494 4.38454V4.38621C16.2494 4.05797 15.98 3.79185 15.6476 3.79185H6.61971C6.28729 3.79185 6.01785 4.05797 6.01785 4.38621V4.38454C6.01785 4.05629 6.28729 3.79018 6.61971 3.79018H15.6476C15.98 3.79018 16.2494 4.05629 16.2494 4.38454Z" fill="#E7E7E7"/>
<path fill-rule="evenodd" clip-rule="evenodd" d="M3.58957 0.94962C8.39318 -0.31654 13.4485 -0.31654 18.2521 0.94962C19.8647 1.37456 21.0963 2.67947 21.4163 4.30217C21.9835 7.1778 21.9835 10.1355 21.4163 13.0111C21.0963 14.6338 19.8647 15.9387 18.2521 16.3641C18.1303 16.3962 18.0083 16.4275 17.8861 16.458C17.6443 16.5182 17.4735 16.7354 17.4735 16.9827V20.4201C17.4735 20.5042 17.424 20.5809 17.347 20.6163C17.2701 20.6518 17.179 20.6398 17.1142 20.5854L13.5765 17.6253C13.2783 17.3759 12.8948 17.2486 12.5051 17.27C9.50369 17.4357 6.49464 17.1299 3.58957 16.3641C1.97698 15.9387 0.745409 14.6338 0.425371 13.0111C-0.14179 10.1355 -0.14179 7.1778 0.425371 4.30217C0.745492 2.67947 1.97706 1.37456 3.58957 0.94962ZM6.01785 6.46491V4.38621V4.38454C6.01785 4.05629 6.28729 3.79018 6.61971 3.79018H15.6476C15.98 3.79018 16.2494 4.05629 16.2494 4.38454V4.38621V6.46491V6.46659C16.2494 6.79483 15.98 7.06097 15.6476 7.06097H13.5428C13.2103 7.06097 12.9409 7.32707 12.9409 7.65536V13.299V13.3007C12.9409 13.629 12.6714 13.8951 12.339 13.8951H9.93158C9.59921 13.8951 9.32976 13.629 9.32976 13.3007V13.299V7.65536C9.32976 7.32707 9.06027 7.06097 8.7279 7.06097H6.61971C6.28729 7.06097 6.01785 6.79483 6.01785 6.46659V6.46491Z" fill="#ACACAC"/>
</svg>
