<svg width="170" height="1920" viewBox="0 0 170 1920" fill="none" xmlns="http://www.w3.org/2000/svg">
<path d="M0 195C0 189.477 4.47715 185 10 185H40C45.5228 185 50 189.477 50 195V225C50 230.523 45.5228 235 40 235H10C4.47715 235 0 230.523 0 225V195Z" fill="url(#paint0_radial_202_241)"/>
<path d="M0 75C0 69.4772 4.47715 65 10 65H40C45.5228 65 50 69.4772 50 75V105C50 110.523 45.5228 115 40 115H10C4.47715 115 0 110.523 0 105V75Z" fill="url(#paint1_radial_202_241)"/>
<path d="M0 315C0 309.477 4.47715 305 10 305H40C45.5228 305 50 309.477 50 315V345C50 350.523 45.5228 355 40 355H10C4.47715 355 0 350.523 0 345V315Z" fill="url(#paint2_radial_202_241)"/>
<path d="M0 435C0 429.477 4.47715 425 10 425H40C45.5228 425 50 429.477 50 435V465C50 470.523 45.5228 475 40 475H10C4.47715 475 0 470.523 0 465V435Z" fill="url(#paint3_radial_202_241)"/>
<path d="M60 195C60 189.477 64.4772 185 70 185H100C105.523 185 110 189.477 110 195V225C110 230.523 105.523 235 100 235H70C64.4772 235 60 230.523 60 225V195Z" fill="url(#paint4_radial_202_241)"/>
<path d="M60 75C60 69.4772 64.4772 65 70 65H100C105.523 65 110 69.4772 110 75V105C110 110.523 105.523 115 100 115H70C64.4772 115 60 110.523 60 105V75Z" fill="url(#paint5_radial_202_241)"/>
<path d="M60 315C60 309.477 64.4772 305 70 305H100C105.523 305 110 309.477 110 315V345C110 350.523 105.523 355 100 355H70C64.4772 355 60 350.523 60 345V315Z" fill="url(#paint6_radial_202_241)"/>
<path d="M60 435C60 429.477 64.4772 425 70 425H100C105.523 425 110 429.477 110 435V465C110 470.523 105.523 475 100 475H70C64.4772 475 60 470.523 60 465V435Z" fill="url(#paint7_radial_202_241)"/>
<path d="M120 195C120 189.477 124.477 185 130 185H160C165.523 185 170 189.477 170 195V225C170 230.523 165.523 235 160 235H130C124.477 235 120 230.523 120 225V195Z" fill="url(#paint8_radial_202_241)"/>
<path d="M120 75C120 69.4772 124.477 65 130 65H160C165.523 65 170 69.4772 170 75V105C170 110.523 165.523 115 160 115H130C124.477 115 120 110.523 120 105V75Z" fill="url(#paint9_radial_202_241)"/>
<path d="M120 315C120 309.477 124.477 305 130 305H160C165.523 305 170 309.477 170 315V345C170 350.523 165.523 355 160 355H130C124.477 355 120 350.523 120 345V315Z" fill="url(#paint10_radial_202_241)"/>
<path d="M120 435C120 429.477 124.477 425 130 425H160C165.523 425 170 429.477 170 435V465C170 470.523 165.523 475 160 475H130C124.477 475 120 470.523 120 465V435Z" fill="url(#paint11_radial_202_241)"/>
<path d="M0 555C0 549.477 4.47715 545 10 545H40C45.5228 545 50 549.477 50 555V585C50 590.523 45.5228 595 40 595H10C4.47715 595 0 590.523 0 585V555Z" fill="url(#paint12_radial_202_241)"/>
<path d="M60 555C60 549.477 64.4772 545 70 545H100C105.523 545 110 549.477 110 555V585C110 590.523 105.523 595 100 595H70C64.4772 595 60 590.523 60 585V555Z" fill="url(#paint13_radial_202_241)"/>
<path d="M120 555C120 549.477 124.477 545 130 545H160C165.523 545 170 549.477 170 555V585C170 590.523 165.523 595 160 595H130C124.477 595 120 590.523 120 585V555Z" fill="url(#paint14_radial_202_241)"/>
<path d="M0 135C0 129.477 4.47715 125 10 125H40C45.5228 125 50 129.477 50 135V165C50 170.523 45.5228 175 40 175H10C4.47715 175 0 170.523 0 165V135Z" fill="url(#paint15_radial_202_241)"/>
<path d="M0 15C0 9.47715 4.47715 5 10 5H40C45.5228 5 50 9.47715 50 15V45C50 50.5228 45.5228 55 40 55H10C4.47715 55 0 50.5228 0 45V15Z" fill="url(#paint16_radial_202_241)"/>
<path d="M0 255C0 249.477 4.47715 245 10 245H40C45.5228 245 50 249.477 50 255V285C50 290.523 45.5228 295 40 295H10C4.47715 295 0 290.523 0 285V255Z" fill="url(#paint17_radial_202_241)"/>
<path d="M0 375C0 369.477 4.47715 365 10 365H40C45.5228 365 50 369.477 50 375V405C50 410.523 45.5228 415 40 415H10C4.47715 415 0 410.523 0 405V375Z" fill="url(#paint18_radial_202_241)"/>
<path d="M60 135C60 129.477 64.4772 125 70 125H100C105.523 125 110 129.477 110 135V165C110 170.523 105.523 175 100 175H70C64.4772 175 60 170.523 60 165V135Z" fill="url(#paint19_radial_202_241)"/>
<path d="M60 15C60 9.47715 64.4772 5 70 5H100C105.523 5 110 9.47715 110 15V45C110 50.5228 105.523 55 100 55H70C64.4772 55 60 50.5228 60 45V15Z" fill="url(#paint20_radial_202_241)"/>
<path d="M60 255C60 249.477 64.4772 245 70 245H100C105.523 245 110 249.477 110 255V285C110 290.523 105.523 295 100 295H70C64.4772 295 60 290.523 60 285V255Z" fill="url(#paint21_radial_202_241)"/>
<path d="M60 375C60 369.477 64.4772 365 70 365H100C105.523 365 110 369.477 110 375V405C110 410.523 105.523 415 100 415H70C64.4772 415 60 410.523 60 405V375Z" fill="url(#paint22_radial_202_241)"/>
<path d="M120 135C120 129.477 124.477 125 130 125H160C165.523 125 170 129.477 170 135V165C170 170.523 165.523 175 160 175H130C124.477 175 120 170.523 120 165V135Z" fill="url(#paint23_radial_202_241)"/>
<path d="M120 15C120 9.47715 124.477 5 130 5H160C165.523 5 170 9.47715 170 15V45C170 50.5228 165.523 55 160 55H130C124.477 55 120 50.5228 120 45V15Z" fill="url(#paint24_radial_202_241)"/>
<path d="M120 255C120 249.477 124.477 245 130 245H160C165.523 245 170 249.477 170 255V285C170 290.523 165.523 295 160 295H130C124.477 295 120 290.523 120 285V255Z" fill="url(#paint25_radial_202_241)"/>
<path d="M120 375C120 369.477 124.477 365 130 365H160C165.523 365 170 369.477 170 375V405C170 410.523 165.523 415 160 415H130C124.477 415 120 410.523 120 405V375Z" fill="url(#paint26_radial_202_241)"/>
<path d="M0 615C0 609.477 4.47715 605 10 605H40C45.5228 605 50 609.477 50 615V645C50 650.523 45.5228 655 40 655H10C4.47715 655 0 650.523 0 645V615Z" fill="url(#paint27_radial_202_241)"/>
<path d="M0 495C0 489.477 4.47715 485 10 485H40C45.5228 485 50 489.477 50 495V525C50 530.523 45.5228 535 40 535H10C4.47715 535 0 530.523 0 525V495Z" fill="url(#paint28_radial_202_241)"/>
<path d="M60 615C60 609.477 64.4772 605 70 605H100C105.523 605 110 609.477 110 615V645C110 650.523 105.523 655 100 655H70C64.4772 655 60 650.523 60 645V615Z" fill="url(#paint29_radial_202_241)"/>
<path d="M60 495C60 489.477 64.4772 485 70 485H100C105.523 485 110 489.477 110 495V525C110 530.523 105.523 535 100 535H70C64.4772 535 60 530.523 60 525V495Z" fill="url(#paint30_radial_202_241)"/>
<path d="M120 615C120 609.477 124.477 605 130 605H160C165.523 605 170 609.477 170 615V645C170 650.523 165.523 655 160 655H130C124.477 655 120 650.523 120 645V615Z" fill="url(#paint31_radial_202_241)"/>
<path d="M120 495C120 489.477 124.477 485 130 485H160C165.523 485 170 489.477 170 495V525C170 530.523 165.523 535 160 535H130C124.477 535 120 530.523 120 525V495Z" fill="url(#paint32_radial_202_241)"/>
<path d="M0 675C0 669.477 4.47715 665 10 665H40C45.5228 665 50 669.477 50 675V705C50 710.523 45.5228 715 40 715H10C4.47715 715 0 710.523 0 705V675Z" fill="url(#paint33_radial_202_241)"/>
<path d="M60 675C60 669.477 64.4772 665 70 665H100C105.523 665 110 669.477 110 675V705C110 710.523 105.523 715 100 715H70C64.4772 715 60 710.523 60 705V675Z" fill="url(#paint34_radial_202_241)"/>
<path d="M120 675C120 669.477 124.477 665 130 665H160C165.523 665 170 669.477 170 675V705C170 710.523 165.523 715 160 715H130C124.477 715 120 710.523 120 705V675Z" fill="url(#paint35_radial_202_241)"/>
<path d="M0 795C0 789.477 4.47715 785 10 785H40C45.5228 785 50 789.477 50 795V825C50 830.523 45.5228 835 40 835H10C4.47715 835 0 830.523 0 825V795Z" fill="url(#paint36_radial_202_241)"/>
<path d="M60 795C60 789.477 64.4772 785 70 785H100C105.523 785 110 789.477 110 795V825C110 830.523 105.523 835 100 835H70C64.4772 835 60 830.523 60 825V795Z" fill="url(#paint37_radial_202_241)"/>
<path d="M120 795C120 789.477 124.477 785 130 785H160C165.523 785 170 789.477 170 795V825C170 830.523 165.523 835 160 835H130C124.477 835 120 830.523 120 825V795Z" fill="url(#paint38_radial_202_241)"/>
<path d="M0 855C0 849.477 4.47715 845 10 845H40C45.5228 845 50 849.477 50 855V885C50 890.523 45.5228 895 40 895H10C4.47715 895 0 890.523 0 885V855Z" fill="url(#paint39_radial_202_241)"/>
<path d="M0 735C0 729.477 4.47715 725 10 725H40C45.5228 725 50 729.477 50 735V765C50 770.523 45.5228 775 40 775H10C4.47715 775 0 770.523 0 765V735Z" fill="url(#paint40_radial_202_241)"/>
<path d="M60 855C60 849.477 64.4772 845 70 845H100C105.523 845 110 849.477 110 855V885C110 890.523 105.523 895 100 895H70C64.4772 895 60 890.523 60 885V855Z" fill="url(#paint41_radial_202_241)"/>
<path d="M60 735C60 729.477 64.4772 725 70 725H100C105.523 725 110 729.477 110 735V765C110 770.523 105.523 775 100 775H70C64.4772 775 60 770.523 60 765V735Z" fill="url(#paint42_radial_202_241)"/>
<path d="M120 855C120 849.477 124.477 845 130 845H160C165.523 845 170 849.477 170 855V885C170 890.523 165.523 895 160 895H130C124.477 895 120 890.523 120 885V855Z" fill="url(#paint43_radial_202_241)"/>
<path d="M120 735C120 729.477 124.477 725 130 725H160C165.523 725 170 729.477 170 735V765C170 770.523 165.523 775 160 775H130C124.477 775 120 770.523 120 765V735Z" fill="url(#paint44_radial_202_241)"/>
<path d="M0 915C0 909.477 4.47715 905 10 905H40C45.5228 905 50 909.477 50 915V945C50 950.523 45.5228 955 40 955H10C4.47715 955 0 950.523 0 945V915Z" fill="url(#paint45_radial_202_241)"/>
<path d="M60 915C60 909.477 64.4772 905 70 905H100C105.523 905 110 909.477 110 915V945C110 950.523 105.523 955 100 955H70C64.4772 955 60 950.523 60 945V915Z" fill="url(#paint46_radial_202_241)"/>
<path d="M120 915C120 909.477 124.477 905 130 905H160C165.523 905 170 909.477 170 915V945C170 950.523 165.523 955 160 955H130C124.477 955 120 950.523 120 945V915Z" fill="url(#paint47_radial_202_241)"/>
<path d="M0 975C0 969.477 4.47715 965 10 965H40C45.5228 965 50 969.477 50 975V1005C50 1010.52 45.5228 1015 40 1015H10C4.47715 1015 0 1010.52 0 1005V975Z" fill="url(#paint48_radial_202_241)"/>
<path d="M60 975C60 969.477 64.4772 965 70 965H100C105.523 965 110 969.477 110 975V1005C110 1010.52 105.523 1015 100 1015H70C64.4772 1015 60 1010.52 60 1005V975Z" fill="url(#paint49_radial_202_241)"/>
<path d="M120 975C120 969.477 124.477 965 130 965H160C165.523 965 170 969.477 170 975V1005C170 1010.52 165.523 1015 160 1015H130C124.477 1015 120 1010.52 120 1005V975Z" fill="url(#paint50_radial_202_241)"/>
<path d="M0 1035C0 1029.48 4.47715 1025 10 1025H40C45.5228 1025 50 1029.48 50 1035V1065C50 1070.52 45.5228 1075 40 1075H10C4.47715 1075 0 1070.52 0 1065V1035Z" fill="url(#paint51_radial_202_241)"/>
<path d="M60 1035C60 1029.48 64.4772 1025 70 1025H100C105.523 1025 110 1029.48 110 1035V1065C110 1070.52 105.523 1075 100 1075H70C64.4772 1075 60 1070.52 60 1065V1035Z" fill="url(#paint52_radial_202_241)"/>
<path d="M120 1035C120 1029.48 124.477 1025 130 1025H160C165.523 1025 170 1029.48 170 1035V1065C170 1070.52 165.523 1075 160 1075H130C124.477 1075 120 1070.52 120 1065V1035Z" fill="url(#paint53_radial_202_241)"/>
<path d="M0 1155C0 1149.48 4.47715 1145 10 1145H40C45.5228 1145 50 1149.48 50 1155V1185C50 1190.52 45.5228 1195 40 1195H10C4.47715 1195 0 1190.52 0 1185V1155Z" fill="url(#paint54_radial_202_241)"/>
<path d="M60 1155C60 1149.48 64.4772 1145 70 1145H100C105.523 1145 110 1149.48 110 1155V1185C110 1190.52 105.523 1195 100 1195H70C64.4772 1195 60 1190.52 60 1185V1155Z" fill="url(#paint55_radial_202_241)"/>
<path d="M120 1155C120 1149.48 124.477 1145 130 1145H160C165.523 1145 170 1149.48 170 1155V1185C170 1190.52 165.523 1195 160 1195H130C124.477 1195 120 1190.52 120 1185V1155Z" fill="url(#paint56_radial_202_241)"/>
<path d="M0 1215C0 1209.48 4.47715 1205 10 1205H40C45.5228 1205 50 1209.48 50 1215V1245C50 1250.52 45.5228 1255 40 1255H10C4.47715 1255 0 1250.52 0 1245V1215Z" fill="url(#paint57_radial_202_241)"/>
<path d="M0 1095C0 1089.48 4.47715 1085 10 1085H40C45.5228 1085 50 1089.48 50 1095V1125C50 1130.52 45.5228 1135 40 1135H10C4.47715 1135 0 1130.52 0 1125V1095Z" fill="url(#paint58_radial_202_241)"/>
<path d="M60 1215C60 1209.48 64.4772 1205 70 1205H100C105.523 1205 110 1209.48 110 1215V1245C110 1250.52 105.523 1255 100 1255H70C64.4772 1255 60 1250.52 60 1245V1215Z" fill="url(#paint59_radial_202_241)"/>
<path d="M60 1095C60 1089.48 64.4772 1085 70 1085H100C105.523 1085 110 1089.48 110 1095V1125C110 1130.52 105.523 1135 100 1135H70C64.4772 1135 60 1130.52 60 1125V1095Z" fill="url(#paint60_radial_202_241)"/>
<path d="M120 1215C120 1209.48 124.477 1205 130 1205H160C165.523 1205 170 1209.48 170 1215V1245C170 1250.52 165.523 1255 160 1255H130C124.477 1255 120 1250.52 120 1245V1215Z" fill="url(#paint61_radial_202_241)"/>
<path d="M120 1095C120 1089.48 124.477 1085 130 1085H160C165.523 1085 170 1089.48 170 1095V1125C170 1130.52 165.523 1135 160 1135H130C124.477 1135 120 1130.52 120 1125V1095Z" fill="url(#paint62_radial_202_241)"/>
<path d="M0 1275C0 1269.48 4.47715 1265 10 1265H40C45.5228 1265 50 1269.48 50 1275V1305C50 1310.52 45.5228 1315 40 1315H10C4.47715 1315 0 1310.52 0 1305V1275Z" fill="url(#paint63_radial_202_241)"/>
<path d="M60 1275C60 1269.48 64.4772 1265 70 1265H100C105.523 1265 110 1269.48 110 1275V1305C110 1310.52 105.523 1315 100 1315H70C64.4772 1315 60 1310.52 60 1305V1275Z" fill="url(#paint64_radial_202_241)"/>
<path d="M120 1275C120 1269.48 124.477 1265 130 1265H160C165.523 1265 170 1269.48 170 1275V1305C170 1310.52 165.523 1315 160 1315H130C124.477 1315 120 1310.52 120 1305V1275Z" fill="url(#paint65_radial_202_241)"/>
<path d="M0 1335C0 1329.48 4.47715 1325 10 1325H40C45.5228 1325 50 1329.48 50 1335V1365C50 1370.52 45.5228 1375 40 1375H10C4.47715 1375 0 1370.52 0 1365V1335Z" fill="url(#paint66_radial_202_241)"/>
<path d="M60 1335C60 1329.48 64.4772 1325 70 1325H100C105.523 1325 110 1329.48 110 1335V1365C110 1370.52 105.523 1375 100 1375H70C64.4772 1375 60 1370.52 60 1365V1335Z" fill="url(#paint67_radial_202_241)"/>
<path d="M120 1335C120 1329.48 124.477 1325 130 1325H160C165.523 1325 170 1329.48 170 1335V1365C170 1370.52 165.523 1375 160 1375H130C124.477 1375 120 1370.52 120 1365V1335Z" fill="url(#paint68_radial_202_241)"/>
<path d="M0 1455C0 1449.48 4.47715 1445 10 1445H40C45.5228 1445 50 1449.48 50 1455V1485C50 1490.52 45.5228 1495 40 1495H10C4.47715 1495 0 1490.52 0 1485V1455Z" fill="url(#paint69_radial_202_241)"/>
<path d="M60 1455C60 1449.48 64.4772 1445 70 1445H100C105.523 1445 110 1449.48 110 1455V1485C110 1490.52 105.523 1495 100 1495H70C64.4772 1495 60 1490.52 60 1485V1455Z" fill="url(#paint70_radial_202_241)"/>
<path d="M120 1455C120 1449.48 124.477 1445 130 1445H160C165.523 1445 170 1449.48 170 1455V1485C170 1490.52 165.523 1495 160 1495H130C124.477 1495 120 1490.52 120 1485V1455Z" fill="url(#paint71_radial_202_241)"/>
<path d="M0 1515C0 1509.48 4.47715 1505 10 1505H40C45.5228 1505 50 1509.48 50 1515V1545C50 1550.52 45.5228 1555 40 1555H10C4.47715 1555 0 1550.52 0 1545V1515Z" fill="url(#paint72_radial_202_241)"/>
<path d="M0 1395C0 1389.48 4.47715 1385 10 1385H40C45.5228 1385 50 1389.48 50 1395V1425C50 1430.52 45.5228 1435 40 1435H10C4.47715 1435 0 1430.52 0 1425V1395Z" fill="url(#paint73_radial_202_241)"/>
<path d="M60 1515C60 1509.48 64.4772 1505 70 1505H100C105.523 1505 110 1509.48 110 1515V1545C110 1550.52 105.523 1555 100 1555H70C64.4772 1555 60 1550.52 60 1545V1515Z" fill="url(#paint74_radial_202_241)"/>
<path d="M60 1395C60 1389.48 64.4772 1385 70 1385H100C105.523 1385 110 1389.48 110 1395V1425C110 1430.52 105.523 1435 100 1435H70C64.4772 1435 60 1430.52 60 1425V1395Z" fill="url(#paint75_radial_202_241)"/>
<path d="M120 1515C120 1509.48 124.477 1505 130 1505H160C165.523 1505 170 1509.48 170 1515V1545C170 1550.52 165.523 1555 160 1555H130C124.477 1555 120 1550.52 120 1545V1515Z" fill="url(#paint76_radial_202_241)"/>
<path d="M120 1395C120 1389.48 124.477 1385 130 1385H160C165.523 1385 170 1389.48 170 1395V1425C170 1430.52 165.523 1435 160 1435H130C124.477 1435 120 1430.52 120 1425V1395Z" fill="url(#paint77_radial_202_241)"/>
<path d="M0 1575C0 1569.48 4.47715 1565 10 1565H40C45.5228 1565 50 1569.48 50 1575V1605C50 1610.52 45.5228 1615 40 1615H10C4.47715 1615 0 1610.52 0 1605V1575Z" fill="url(#paint78_radial_202_241)"/>
<path d="M60 1575C60 1569.48 64.4772 1565 70 1565H100C105.523 1565 110 1569.48 110 1575V1605C110 1610.52 105.523 1615 100 1615H70C64.4772 1615 60 1610.52 60 1605V1575Z" fill="url(#paint79_radial_202_241)"/>
<path d="M120 1575C120 1569.48 124.477 1565 130 1565H160C165.523 1565 170 1569.48 170 1575V1605C170 1610.52 165.523 1615 160 1615H130C124.477 1615 120 1610.52 120 1605V1575Z" fill="url(#paint80_radial_202_241)"/>
<path d="M0 1635C0 1629.48 4.47715 1625 10 1625H40C45.5228 1625 50 1629.48 50 1635V1665C50 1670.52 45.5228 1675 40 1675H10C4.47715 1675 0 1670.52 0 1665V1635Z" fill="url(#paint81_radial_202_241)"/>
<path d="M60 1635C60 1629.48 64.4772 1625 70 1625H100C105.523 1625 110 1629.48 110 1635V1665C110 1670.52 105.523 1675 100 1675H70C64.4772 1675 60 1670.52 60 1665V1635Z" fill="url(#paint82_radial_202_241)"/>
<path d="M120 1635C120 1629.48 124.477 1625 130 1625H160C165.523 1625 170 1629.48 170 1635V1665C170 1670.52 165.523 1675 160 1675H130C124.477 1675 120 1670.52 120 1665V1635Z" fill="url(#paint83_radial_202_241)"/>
<path d="M0 1695C0 1689.48 4.47715 1685 10 1685H40C45.5228 1685 50 1689.48 50 1695V1725C50 1730.52 45.5228 1735 40 1735H10C4.47715 1735 0 1730.52 0 1725V1695Z" fill="url(#paint84_radial_202_241)"/>
<path d="M60 1695C60 1689.48 64.4772 1685 70 1685H100C105.523 1685 110 1689.48 110 1695V1725C110 1730.52 105.523 1735 100 1735H70C64.4772 1735 60 1730.52 60 1725V1695Z" fill="url(#paint85_radial_202_241)"/>
<path d="M120 1695C120 1689.48 124.477 1685 130 1685H160C165.523 1685 170 1689.48 170 1695V1725C170 1730.52 165.523 1735 160 1735H130C124.477 1735 120 1730.52 120 1725V1695Z" fill="url(#paint86_radial_202_241)"/>
<path d="M0 1815C0 1809.48 4.47715 1805 10 1805H40C45.5228 1805 50 1809.48 50 1815V1845C50 1850.52 45.5228 1855 40 1855H10C4.47715 1855 0 1850.52 0 1845V1815Z" fill="url(#paint87_radial_202_241)"/>
<path d="M60 1815C60 1809.48 64.4772 1805 70 1805H100C105.523 1805 110 1809.48 110 1815V1845C110 1850.52 105.523 1855 100 1855H70C64.4772 1855 60 1850.52 60 1845V1815Z" fill="url(#paint88_radial_202_241)"/>
<path d="M120 1815C120 1809.48 124.477 1805 130 1805H160C165.523 1805 170 1809.48 170 1815V1845C170 1850.52 165.523 1855 160 1855H130C124.477 1855 120 1850.52 120 1845V1815Z" fill="url(#paint89_radial_202_241)"/>
<path d="M0 1875C0 1869.48 4.47715 1865 10 1865H40C45.5228 1865 50 1869.48 50 1875V1905C50 1910.52 45.5228 1915 40 1915H10C4.47715 1915 0 1910.52 0 1905V1875Z" fill="url(#paint90_radial_202_241)"/>
<path d="M0 1755C0 1749.48 4.47715 1745 10 1745H40C45.5228 1745 50 1749.48 50 1755V1785C50 1790.52 45.5228 1795 40 1795H10C4.47715 1795 0 1790.52 0 1785V1755Z" fill="url(#paint91_radial_202_241)"/>
<path d="M60 1875C60 1869.48 64.4772 1865 70 1865H100C105.523 1865 110 1869.48 110 1875V1905C110 1910.52 105.523 1915 100 1915H70C64.4772 1915 60 1910.52 60 1905V1875Z" fill="url(#paint92_radial_202_241)"/>
<path d="M60 1755C60 1749.48 64.4772 1745 70 1745H100C105.523 1745 110 1749.48 110 1755V1785C110 1790.52 105.523 1795 100 1795H70C64.4772 1795 60 1790.52 60 1785V1755Z" fill="url(#paint93_radial_202_241)"/>
<path d="M120 1875C120 1869.48 124.477 1865 130 1865H160C165.523 1865 170 1869.48 170 1875V1905C170 1910.52 165.523 1915 160 1915H130C124.477 1915 120 1910.52 120 1905V1875Z" fill="url(#paint94_radial_202_241)"/>
<path d="M120 1755C120 1749.48 124.477 1745 130 1745H160C165.523 1745 170 1749.48 170 1755V1785C170 1790.52 165.523 1795 160 1795H130C124.477 1795 120 1790.52 120 1785V1755Z" fill="url(#paint95_radial_202_241)"/>
<defs>
<radialGradient id="paint0_radial_202_241" cx="0" cy="0" r="1" gradientUnits="userSpaceOnUse" gradientTransform="translate(170 960) rotate(90) scale(955 170)">
<stop offset="0.235577" stop-color="#021326"/>
<stop offset="1" stop-color="#000203"/>
</radialGradient>
<radialGradient id="paint1_radial_202_241" cx="0" cy="0" r="1" gradientUnits="userSpaceOnUse" gradientTransform="translate(170 960) rotate(90) scale(955 170)">
<stop offset="0.235577" stop-color="#021326"/>
<stop offset="1" stop-color="#000203"/>
</radialGradient>
<radialGradient id="paint2_radial_202_241" cx="0" cy="0" r="1" gradientUnits="userSpaceOnUse" gradientTransform="translate(170 960) rotate(90) scale(955 170)">
<stop offset="0.235577" stop-color="#021326"/>
<stop offset="1" stop-color="#000203"/>
</radialGradient>
<radialGradient id="paint3_radial_202_241" cx="0" cy="0" r="1" gradientUnits="userSpaceOnUse" gradientTransform="translate(170 960) rotate(90) scale(955 170)">
<stop offset="0.235577" stop-color="#021326"/>
<stop offset="1" stop-color="#000203"/>
</radialGradient>
<radialGradient id="paint4_radial_202_241" cx="0" cy="0" r="1" gradientUnits="userSpaceOnUse" gradientTransform="translate(170 960) rotate(90) scale(955 170)">
<stop offset="0.235577" stop-color="#021326"/>
<stop offset="1" stop-color="#000203"/>
</radialGradient>
<radialGradient id="paint5_radial_202_241" cx="0" cy="0" r="1" gradientUnits="userSpaceOnUse" gradientTransform="translate(170 960) rotate(90) scale(955 170)">
<stop offset="0.235577" stop-color="#021326"/>
<stop offset="1" stop-color="#000203"/>
</radialGradient>
<radialGradient id="paint6_radial_202_241" cx="0" cy="0" r="1" gradientUnits="userSpaceOnUse" gradientTransform="translate(170 960) rotate(90) scale(955 170)">
<stop offset="0.235577" stop-color="#021326"/>
<stop offset="1" stop-color="#000203"/>
</radialGradient>
<radialGradient id="paint7_radial_202_241" cx="0" cy="0" r="1" gradientUnits="userSpaceOnUse" gradientTransform="translate(170 960) rotate(90) scale(955 170)">
<stop offset="0.235577" stop-color="#021326"/>
<stop offset="1" stop-color="#000203"/>
</radialGradient>
<radialGradient id="paint8_radial_202_241" cx="0" cy="0" r="1" gradientUnits="userSpaceOnUse" gradientTransform="translate(170 960) rotate(90) scale(955 170)">
<stop offset="0.235577" stop-color="#021326"/>
<stop offset="1" stop-color="#000203"/>
</radialGradient>
<radialGradient id="paint9_radial_202_241" cx="0" cy="0" r="1" gradientUnits="userSpaceOnUse" gradientTransform="translate(170 960) rotate(90) scale(955 170)">
<stop offset="0.235577" stop-color="#021326"/>
<stop offset="1" stop-color="#000203"/>
</radialGradient>
<radialGradient id="paint10_radial_202_241" cx="0" cy="0" r="1" gradientUnits="userSpaceOnUse" gradientTransform="translate(170 960) rotate(90) scale(955 170)">
<stop offset="0.235577" stop-color="#021326"/>
<stop offset="1" stop-color="#000203"/>
</radialGradient>
<radialGradient id="paint11_radial_202_241" cx="0" cy="0" r="1" gradientUnits="userSpaceOnUse" gradientTransform="translate(170 960) rotate(90) scale(955 170)">
<stop offset="0.235577" stop-color="#021326"/>
<stop offset="1" stop-color="#000203"/>
</radialGradient>
<radialGradient id="paint12_radial_202_241" cx="0" cy="0" r="1" gradientUnits="userSpaceOnUse" gradientTransform="translate(170 960) rotate(90) scale(955 170)">
<stop offset="0.235577" stop-color="#021326"/>
<stop offset="1" stop-color="#000203"/>
</radialGradient>
<radialGradient id="paint13_radial_202_241" cx="0" cy="0" r="1" gradientUnits="userSpaceOnUse" gradientTransform="translate(170 960) rotate(90) scale(955 170)">
<stop offset="0.235577" stop-color="#021326"/>
<stop offset="1" stop-color="#000203"/>
</radialGradient>
<radialGradient id="paint14_radial_202_241" cx="0" cy="0" r="1" gradientUnits="userSpaceOnUse" gradientTransform="translate(170 960) rotate(90) scale(955 170)">
<stop offset="0.235577" stop-color="#021326"/>
<stop offset="1" stop-color="#000203"/>
</radialGradient>
<radialGradient id="paint15_radial_202_241" cx="0" cy="0" r="1" gradientUnits="userSpaceOnUse" gradientTransform="translate(170 960) rotate(90) scale(955 170)">
<stop offset="0.235577" stop-color="#021326"/>
<stop offset="1" stop-color="#000203"/>
</radialGradient>
<radialGradient id="paint16_radial_202_241" cx="0" cy="0" r="1" gradientUnits="userSpaceOnUse" gradientTransform="translate(170 960) rotate(90) scale(955 170)">
<stop offset="0.235577" stop-color="#021326"/>
<stop offset="1" stop-color="#000203"/>
</radialGradient>
<radialGradient id="paint17_radial_202_241" cx="0" cy="0" r="1" gradientUnits="userSpaceOnUse" gradientTransform="translate(170 960) rotate(90) scale(955 170)">
<stop offset="0.235577" stop-color="#021326"/>
<stop offset="1" stop-color="#000203"/>
</radialGradient>
<radialGradient id="paint18_radial_202_241" cx="0" cy="0" r="1" gradientUnits="userSpaceOnUse" gradientTransform="translate(170 960) rotate(90) scale(955 170)">
<stop offset="0.235577" stop-color="#021326"/>
<stop offset="1" stop-color="#000203"/>
</radialGradient>
<radialGradient id="paint19_radial_202_241" cx="0" cy="0" r="1" gradientUnits="userSpaceOnUse" gradientTransform="translate(170 960) rotate(90) scale(955 170)">
<stop offset="0.235577" stop-color="#021326"/>
<stop offset="1" stop-color="#000203"/>
</radialGradient>
<radialGradient id="paint20_radial_202_241" cx="0" cy="0" r="1" gradientUnits="userSpaceOnUse" gradientTransform="translate(170 960) rotate(90) scale(955 170)">
<stop offset="0.235577" stop-color="#021326"/>
<stop offset="1" stop-color="#000203"/>
</radialGradient>
<radialGradient id="paint21_radial_202_241" cx="0" cy="0" r="1" gradientUnits="userSpaceOnUse" gradientTransform="translate(170 960) rotate(90) scale(955 170)">
<stop offset="0.235577" stop-color="#021326"/>
<stop offset="1" stop-color="#000203"/>
</radialGradient>
<radialGradient id="paint22_radial_202_241" cx="0" cy="0" r="1" gradientUnits="userSpaceOnUse" gradientTransform="translate(170 960) rotate(90) scale(955 170)">
<stop offset="0.235577" stop-color="#021326"/>
<stop offset="1" stop-color="#000203"/>
</radialGradient>
<radialGradient id="paint23_radial_202_241" cx="0" cy="0" r="1" gradientUnits="userSpaceOnUse" gradientTransform="translate(170 960) rotate(90) scale(955 170)">
<stop offset="0.235577" stop-color="#021326"/>
<stop offset="1" stop-color="#000203"/>
</radialGradient>
<radialGradient id="paint24_radial_202_241" cx="0" cy="0" r="1" gradientUnits="userSpaceOnUse" gradientTransform="translate(170 960) rotate(90) scale(955 170)">
<stop offset="0.235577" stop-color="#021326"/>
<stop offset="1" stop-color="#000203"/>
</radialGradient>
<radialGradient id="paint25_radial_202_241" cx="0" cy="0" r="1" gradientUnits="userSpaceOnUse" gradientTransform="translate(170 960) rotate(90) scale(955 170)">
<stop offset="0.235577" stop-color="#021326"/>
<stop offset="1" stop-color="#000203"/>
</radialGradient>
<radialGradient id="paint26_radial_202_241" cx="0" cy="0" r="1" gradientUnits="userSpaceOnUse" gradientTransform="translate(170 960) rotate(90) scale(955 170)">
<stop offset="0.235577" stop-color="#021326"/>
<stop offset="1" stop-color="#000203"/>
</radialGradient>
<radialGradient id="paint27_radial_202_241" cx="0" cy="0" r="1" gradientUnits="userSpaceOnUse" gradientTransform="translate(170 960) rotate(90) scale(955 170)">
<stop offset="0.235577" stop-color="#021326"/>
<stop offset="1" stop-color="#000203"/>
</radialGradient>
<radialGradient id="paint28_radial_202_241" cx="0" cy="0" r="1" gradientUnits="userSpaceOnUse" gradientTransform="translate(170 960) rotate(90) scale(955 170)">
<stop offset="0.235577" stop-color="#021326"/>
<stop offset="1" stop-color="#000203"/>
</radialGradient>
<radialGradient id="paint29_radial_202_241" cx="0" cy="0" r="1" gradientUnits="userSpaceOnUse" gradientTransform="translate(170 960) rotate(90) scale(955 170)">
<stop offset="0.235577" stop-color="#021326"/>
<stop offset="1" stop-color="#000203"/>
</radialGradient>
<radialGradient id="paint30_radial_202_241" cx="0" cy="0" r="1" gradientUnits="userSpaceOnUse" gradientTransform="translate(170 960) rotate(90) scale(955 170)">
<stop offset="0.235577" stop-color="#021326"/>
<stop offset="1" stop-color="#000203"/>
</radialGradient>
<radialGradient id="paint31_radial_202_241" cx="0" cy="0" r="1" gradientUnits="userSpaceOnUse" gradientTransform="translate(170 960) rotate(90) scale(955 170)">
<stop offset="0.235577" stop-color="#021326"/>
<stop offset="1" stop-color="#000203"/>
</radialGradient>
<radialGradient id="paint32_radial_202_241" cx="0" cy="0" r="1" gradientUnits="userSpaceOnUse" gradientTransform="translate(170 960) rotate(90) scale(955 170)">
<stop offset="0.235577" stop-color="#021326"/>
<stop offset="1" stop-color="#000203"/>
</radialGradient>
<radialGradient id="paint33_radial_202_241" cx="0" cy="0" r="1" gradientUnits="userSpaceOnUse" gradientTransform="translate(170 960) rotate(90) scale(955 170)">
<stop offset="0.235577" stop-color="#021326"/>
<stop offset="1" stop-color="#000203"/>
</radialGradient>
<radialGradient id="paint34_radial_202_241" cx="0" cy="0" r="1" gradientUnits="userSpaceOnUse" gradientTransform="translate(170 960) rotate(90) scale(955 170)">
<stop offset="0.235577" stop-color="#021326"/>
<stop offset="1" stop-color="#000203"/>
</radialGradient>
<radialGradient id="paint35_radial_202_241" cx="0" cy="0" r="1" gradientUnits="userSpaceOnUse" gradientTransform="translate(170 960) rotate(90) scale(955 170)">
<stop offset="0.235577" stop-color="#021326"/>
<stop offset="1" stop-color="#000203"/>
</radialGradient>
<radialGradient id="paint36_radial_202_241" cx="0" cy="0" r="1" gradientUnits="userSpaceOnUse" gradientTransform="translate(170 960) rotate(90) scale(955 170)">
<stop offset="0.235577" stop-color="#021326"/>
<stop offset="1" stop-color="#000203"/>
</radialGradient>
<radialGradient id="paint37_radial_202_241" cx="0" cy="0" r="1" gradientUnits="userSpaceOnUse" gradientTransform="translate(170 960) rotate(90) scale(955 170)">
<stop offset="0.235577" stop-color="#021326"/>
<stop offset="1" stop-color="#000203"/>
</radialGradient>
<radialGradient id="paint38_radial_202_241" cx="0" cy="0" r="1" gradientUnits="userSpaceOnUse" gradientTransform="translate(170 960) rotate(90) scale(955 170)">
<stop offset="0.235577" stop-color="#021326"/>
<stop offset="1" stop-color="#000203"/>
</radialGradient>
<radialGradient id="paint39_radial_202_241" cx="0" cy="0" r="1" gradientUnits="userSpaceOnUse" gradientTransform="translate(170 960) rotate(90) scale(955 170)">
<stop offset="0.235577" stop-color="#021326"/>
<stop offset="1" stop-color="#000203"/>
</radialGradient>
<radialGradient id="paint40_radial_202_241" cx="0" cy="0" r="1" gradientUnits="userSpaceOnUse" gradientTransform="translate(170 960) rotate(90) scale(955 170)">
<stop offset="0.235577" stop-color="#021326"/>
<stop offset="1" stop-color="#000203"/>
</radialGradient>
<radialGradient id="paint41_radial_202_241" cx="0" cy="0" r="1" gradientUnits="userSpaceOnUse" gradientTransform="translate(170 960) rotate(90) scale(955 170)">
<stop offset="0.235577" stop-color="#021326"/>
<stop offset="1" stop-color="#000203"/>
</radialGradient>
<radialGradient id="paint42_radial_202_241" cx="0" cy="0" r="1" gradientUnits="userSpaceOnUse" gradientTransform="translate(170 960) rotate(90) scale(955 170)">
<stop offset="0.235577" stop-color="#021326"/>
<stop offset="1" stop-color="#000203"/>
</radialGradient>
<radialGradient id="paint43_radial_202_241" cx="0" cy="0" r="1" gradientUnits="userSpaceOnUse" gradientTransform="translate(170 960) rotate(90) scale(955 170)">
<stop offset="0.235577" stop-color="#021326"/>
<stop offset="1" stop-color="#000203"/>
</radialGradient>
<radialGradient id="paint44_radial_202_241" cx="0" cy="0" r="1" gradientUnits="userSpaceOnUse" gradientTransform="translate(170 960) rotate(90) scale(955 170)">
<stop offset="0.235577" stop-color="#021326"/>
<stop offset="1" stop-color="#000203"/>
</radialGradient>
<radialGradient id="paint45_radial_202_241" cx="0" cy="0" r="1" gradientUnits="userSpaceOnUse" gradientTransform="translate(170 960) rotate(90) scale(955 170)">
<stop offset="0.235577" stop-color="#021326"/>
<stop offset="1" stop-color="#000203"/>
</radialGradient>
<radialGradient id="paint46_radial_202_241" cx="0" cy="0" r="1" gradientUnits="userSpaceOnUse" gradientTransform="translate(170 960) rotate(90) scale(955 170)">
<stop offset="0.235577" stop-color="#021326"/>
<stop offset="1" stop-color="#000203"/>
</radialGradient>
<radialGradient id="paint47_radial_202_241" cx="0" cy="0" r="1" gradientUnits="userSpaceOnUse" gradientTransform="translate(170 960) rotate(90) scale(955 170)">
<stop offset="0.235577" stop-color="#021326"/>
<stop offset="1" stop-color="#000203"/>
</radialGradient>
<radialGradient id="paint48_radial_202_241" cx="0" cy="0" r="1" gradientUnits="userSpaceOnUse" gradientTransform="translate(170 960) rotate(90) scale(955 170)">
<stop offset="0.235577" stop-color="#021326"/>
<stop offset="1" stop-color="#000203"/>
</radialGradient>
<radialGradient id="paint49_radial_202_241" cx="0" cy="0" r="1" gradientUnits="userSpaceOnUse" gradientTransform="translate(170 960) rotate(90) scale(955 170)">
<stop offset="0.235577" stop-color="#021326"/>
<stop offset="1" stop-color="#000203"/>
</radialGradient>
<radialGradient id="paint50_radial_202_241" cx="0" cy="0" r="1" gradientUnits="userSpaceOnUse" gradientTransform="translate(170 960) rotate(90) scale(955 170)">
<stop offset="0.235577" stop-color="#021326"/>
<stop offset="1" stop-color="#000203"/>
</radialGradient>
<radialGradient id="paint51_radial_202_241" cx="0" cy="0" r="1" gradientUnits="userSpaceOnUse" gradientTransform="translate(170 960) rotate(90) scale(955 170)">
<stop offset="0.235577" stop-color="#021326"/>
<stop offset="1" stop-color="#000203"/>
</radialGradient>
<radialGradient id="paint52_radial_202_241" cx="0" cy="0" r="1" gradientUnits="userSpaceOnUse" gradientTransform="translate(170 960) rotate(90) scale(955 170)">
<stop offset="0.235577" stop-color="#021326"/>
<stop offset="1" stop-color="#000203"/>
</radialGradient>
<radialGradient id="paint53_radial_202_241" cx="0" cy="0" r="1" gradientUnits="userSpaceOnUse" gradientTransform="translate(170 960) rotate(90) scale(955 170)">
<stop offset="0.235577" stop-color="#021326"/>
<stop offset="1" stop-color="#000203"/>
</radialGradient>
<radialGradient id="paint54_radial_202_241" cx="0" cy="0" r="1" gradientUnits="userSpaceOnUse" gradientTransform="translate(170 960) rotate(90) scale(955 170)">
<stop offset="0.235577" stop-color="#021326"/>
<stop offset="1" stop-color="#000203"/>
</radialGradient>
<radialGradient id="paint55_radial_202_241" cx="0" cy="0" r="1" gradientUnits="userSpaceOnUse" gradientTransform="translate(170 960) rotate(90) scale(955 170)">
<stop offset="0.235577" stop-color="#021326"/>
<stop offset="1" stop-color="#000203"/>
</radialGradient>
<radialGradient id="paint56_radial_202_241" cx="0" cy="0" r="1" gradientUnits="userSpaceOnUse" gradientTransform="translate(170 960) rotate(90) scale(955 170)">
<stop offset="0.235577" stop-color="#021326"/>
<stop offset="1" stop-color="#000203"/>
</radialGradient>
<radialGradient id="paint57_radial_202_241" cx="0" cy="0" r="1" gradientUnits="userSpaceOnUse" gradientTransform="translate(170 960) rotate(90) scale(955 170)">
<stop offset="0.235577" stop-color="#021326"/>
<stop offset="1" stop-color="#000203"/>
</radialGradient>
<radialGradient id="paint58_radial_202_241" cx="0" cy="0" r="1" gradientUnits="userSpaceOnUse" gradientTransform="translate(170 960) rotate(90) scale(955 170)">
<stop offset="0.235577" stop-color="#021326"/>
<stop offset="1" stop-color="#000203"/>
</radialGradient>
<radialGradient id="paint59_radial_202_241" cx="0" cy="0" r="1" gradientUnits="userSpaceOnUse" gradientTransform="translate(170 960) rotate(90) scale(955 170)">
<stop offset="0.235577" stop-color="#021326"/>
<stop offset="1" stop-color="#000203"/>
</radialGradient>
<radialGradient id="paint60_radial_202_241" cx="0" cy="0" r="1" gradientUnits="userSpaceOnUse" gradientTransform="translate(170 960) rotate(90) scale(955 170)">
<stop offset="0.235577" stop-color="#021326"/>
<stop offset="1" stop-color="#000203"/>
</radialGradient>
<radialGradient id="paint61_radial_202_241" cx="0" cy="0" r="1" gradientUnits="userSpaceOnUse" gradientTransform="translate(170 960) rotate(90) scale(955 170)">
<stop offset="0.235577" stop-color="#021326"/>
<stop offset="1" stop-color="#000203"/>
</radialGradient>
<radialGradient id="paint62_radial_202_241" cx="0" cy="0" r="1" gradientUnits="userSpaceOnUse" gradientTransform="translate(170 960) rotate(90) scale(955 170)">
<stop offset="0.235577" stop-color="#021326"/>
<stop offset="1" stop-color="#000203"/>
</radialGradient>
<radialGradient id="paint63_radial_202_241" cx="0" cy="0" r="1" gradientUnits="userSpaceOnUse" gradientTransform="translate(170 960) rotate(90) scale(955 170)">
<stop offset="0.235577" stop-color="#021326"/>
<stop offset="1" stop-color="#000203"/>
</radialGradient>
<radialGradient id="paint64_radial_202_241" cx="0" cy="0" r="1" gradientUnits="userSpaceOnUse" gradientTransform="translate(170 960) rotate(90) scale(955 170)">
<stop offset="0.235577" stop-color="#021326"/>
<stop offset="1" stop-color="#000203"/>
</radialGradient>
<radialGradient id="paint65_radial_202_241" cx="0" cy="0" r="1" gradientUnits="userSpaceOnUse" gradientTransform="translate(170 960) rotate(90) scale(955 170)">
<stop offset="0.235577" stop-color="#021326"/>
<stop offset="1" stop-color="#000203"/>
</radialGradient>
<radialGradient id="paint66_radial_202_241" cx="0" cy="0" r="1" gradientUnits="userSpaceOnUse" gradientTransform="translate(170 960) rotate(90) scale(955 170)">
<stop offset="0.235577" stop-color="#021326"/>
<stop offset="1" stop-color="#000203"/>
</radialGradient>
<radialGradient id="paint67_radial_202_241" cx="0" cy="0" r="1" gradientUnits="userSpaceOnUse" gradientTransform="translate(170 960) rotate(90) scale(955 170)">
<stop offset="0.235577" stop-color="#021326"/>
<stop offset="1" stop-color="#000203"/>
</radialGradient>
<radialGradient id="paint68_radial_202_241" cx="0" cy="0" r="1" gradientUnits="userSpaceOnUse" gradientTransform="translate(170 960) rotate(90) scale(955 170)">
<stop offset="0.235577" stop-color="#021326"/>
<stop offset="1" stop-color="#000203"/>
</radialGradient>
<radialGradient id="paint69_radial_202_241" cx="0" cy="0" r="1" gradientUnits="userSpaceOnUse" gradientTransform="translate(170 960) rotate(90) scale(955 170)">
<stop offset="0.235577" stop-color="#021326"/>
<stop offset="1" stop-color="#000203"/>
</radialGradient>
<radialGradient id="paint70_radial_202_241" cx="0" cy="0" r="1" gradientUnits="userSpaceOnUse" gradientTransform="translate(170 960) rotate(90) scale(955 170)">
<stop offset="0.235577" stop-color="#021326"/>
<stop offset="1" stop-color="#000203"/>
</radialGradient>
<radialGradient id="paint71_radial_202_241" cx="0" cy="0" r="1" gradientUnits="userSpaceOnUse" gradientTransform="translate(170 960) rotate(90) scale(955 170)">
<stop offset="0.235577" stop-color="#021326"/>
<stop offset="1" stop-color="#000203"/>
</radialGradient>
<radialGradient id="paint72_radial_202_241" cx="0" cy="0" r="1" gradientUnits="userSpaceOnUse" gradientTransform="translate(170 960) rotate(90) scale(955 170)">
<stop offset="0.235577" stop-color="#021326"/>
<stop offset="1" stop-color="#000203"/>
</radialGradient>
<radialGradient id="paint73_radial_202_241" cx="0" cy="0" r="1" gradientUnits="userSpaceOnUse" gradientTransform="translate(170 960) rotate(90) scale(955 170)">
<stop offset="0.235577" stop-color="#021326"/>
<stop offset="1" stop-color="#000203"/>
</radialGradient>
<radialGradient id="paint74_radial_202_241" cx="0" cy="0" r="1" gradientUnits="userSpaceOnUse" gradientTransform="translate(170 960) rotate(90) scale(955 170)">
<stop offset="0.235577" stop-color="#021326"/>
<stop offset="1" stop-color="#000203"/>
</radialGradient>
<radialGradient id="paint75_radial_202_241" cx="0" cy="0" r="1" gradientUnits="userSpaceOnUse" gradientTransform="translate(170 960) rotate(90) scale(955 170)">
<stop offset="0.235577" stop-color="#021326"/>
<stop offset="1" stop-color="#000203"/>
</radialGradient>
<radialGradient id="paint76_radial_202_241" cx="0" cy="0" r="1" gradientUnits="userSpaceOnUse" gradientTransform="translate(170 960) rotate(90) scale(955 170)">
<stop offset="0.235577" stop-color="#021326"/>
<stop offset="1" stop-color="#000203"/>
</radialGradient>
<radialGradient id="paint77_radial_202_241" cx="0" cy="0" r="1" gradientUnits="userSpaceOnUse" gradientTransform="translate(170 960) rotate(90) scale(955 170)">
<stop offset="0.235577" stop-color="#021326"/>
<stop offset="1" stop-color="#000203"/>
</radialGradient>
<radialGradient id="paint78_radial_202_241" cx="0" cy="0" r="1" gradientUnits="userSpaceOnUse" gradientTransform="translate(170 960) rotate(90) scale(955 170)">
<stop offset="0.235577" stop-color="#021326"/>
<stop offset="1" stop-color="#000203"/>
</radialGradient>
<radialGradient id="paint79_radial_202_241" cx="0" cy="0" r="1" gradientUnits="userSpaceOnUse" gradientTransform="translate(170 960) rotate(90) scale(955 170)">
<stop offset="0.235577" stop-color="#021326"/>
<stop offset="1" stop-color="#000203"/>
</radialGradient>
<radialGradient id="paint80_radial_202_241" cx="0" cy="0" r="1" gradientUnits="userSpaceOnUse" gradientTransform="translate(170 960) rotate(90) scale(955 170)">
<stop offset="0.235577" stop-color="#021326"/>
<stop offset="1" stop-color="#000203"/>
</radialGradient>
<radialGradient id="paint81_radial_202_241" cx="0" cy="0" r="1" gradientUnits="userSpaceOnUse" gradientTransform="translate(170 960) rotate(90) scale(955 170)">
<stop offset="0.235577" stop-color="#021326"/>
<stop offset="1" stop-color="#000203"/>
</radialGradient>
<radialGradient id="paint82_radial_202_241" cx="0" cy="0" r="1" gradientUnits="userSpaceOnUse" gradientTransform="translate(170 960) rotate(90) scale(955 170)">
<stop offset="0.235577" stop-color="#021326"/>
<stop offset="1" stop-color="#000203"/>
</radialGradient>
<radialGradient id="paint83_radial_202_241" cx="0" cy="0" r="1" gradientUnits="userSpaceOnUse" gradientTransform="translate(170 960) rotate(90) scale(955 170)">
<stop offset="0.235577" stop-color="#021326"/>
<stop offset="1" stop-color="#000203"/>
</radialGradient>
<radialGradient id="paint84_radial_202_241" cx="0" cy="0" r="1" gradientUnits="userSpaceOnUse" gradientTransform="translate(170 960) rotate(90) scale(955 170)">
<stop offset="0.235577" stop-color="#021326"/>
<stop offset="1" stop-color="#000203"/>
</radialGradient>
<radialGradient id="paint85_radial_202_241" cx="0" cy="0" r="1" gradientUnits="userSpaceOnUse" gradientTransform="translate(170 960) rotate(90) scale(955 170)">
<stop offset="0.235577" stop-color="#021326"/>
<stop offset="1" stop-color="#000203"/>
</radialGradient>
<radialGradient id="paint86_radial_202_241" cx="0" cy="0" r="1" gradientUnits="userSpaceOnUse" gradientTransform="translate(170 960) rotate(90) scale(955 170)">
<stop offset="0.235577" stop-color="#021326"/>
<stop offset="1" stop-color="#000203"/>
</radialGradient>
<radialGradient id="paint87_radial_202_241" cx="0" cy="0" r="1" gradientUnits="userSpaceOnUse" gradientTransform="translate(170 960) rotate(90) scale(955 170)">
<stop offset="0.235577" stop-color="#021326"/>
<stop offset="1" stop-color="#000203"/>
</radialGradient>
<radialGradient id="paint88_radial_202_241" cx="0" cy="0" r="1" gradientUnits="userSpaceOnUse" gradientTransform="translate(170 960) rotate(90) scale(955 170)">
<stop offset="0.235577" stop-color="#021326"/>
<stop offset="1" stop-color="#000203"/>
</radialGradient>
<radialGradient id="paint89_radial_202_241" cx="0" cy="0" r="1" gradientUnits="userSpaceOnUse" gradientTransform="translate(170 960) rotate(90) scale(955 170)">
<stop offset="0.235577" stop-color="#021326"/>
<stop offset="1" stop-color="#000203"/>
</radialGradient>
<radialGradient id="paint90_radial_202_241" cx="0" cy="0" r="1" gradientUnits="userSpaceOnUse" gradientTransform="translate(170 960) rotate(90) scale(955 170)">
<stop offset="0.235577" stop-color="#021326"/>
<stop offset="1" stop-color="#000203"/>
</radialGradient>
<radialGradient id="paint91_radial_202_241" cx="0" cy="0" r="1" gradientUnits="userSpaceOnUse" gradientTransform="translate(170 960) rotate(90) scale(955 170)">
<stop offset="0.235577" stop-color="#021326"/>
<stop offset="1" stop-color="#000203"/>
</radialGradient>
<radialGradient id="paint92_radial_202_241" cx="0" cy="0" r="1" gradientUnits="userSpaceOnUse" gradientTransform="translate(170 960) rotate(90) scale(955 170)">
<stop offset="0.235577" stop-color="#021326"/>
<stop offset="1" stop-color="#000203"/>
</radialGradient>
<radialGradient id="paint93_radial_202_241" cx="0" cy="0" r="1" gradientUnits="userSpaceOnUse" gradientTransform="translate(170 960) rotate(90) scale(955 170)">
<stop offset="0.235577" stop-color="#021326"/>
<stop offset="1" stop-color="#000203"/>
</radialGradient>
<radialGradient id="paint94_radial_202_241" cx="0" cy="0" r="1" gradientUnits="userSpaceOnUse" gradientTransform="translate(170 960) rotate(90) scale(955 170)">
<stop offset="0.235577" stop-color="#021326"/>
<stop offset="1" stop-color="#000203"/>
</radialGradient>
<radialGradient id="paint95_radial_202_241" cx="0" cy="0" r="1" gradientUnits="userSpaceOnUse" gradientTransform="translate(170 960) rotate(90) scale(955 170)">
<stop offset="0.235577" stop-color="#021326"/>
<stop offset="1" stop-color="#000203"/>
</radialGradient>
</defs>
</svg>
