<svg width="201" height="201" viewBox="0 0 201 201" fill="none" xmlns="http://www.w3.org/2000/svg">
<path d="M0 81.2553C0 78.8934 1.9147 76.9787 4.2766 76.9787H17.1064C19.4683 76.9787 21.383 78.8934 21.383 81.2553V94.0851C21.383 96.447 19.4683 98.3617 17.1064 98.3617H4.2766C1.9147 98.3617 0 96.447 0 94.0851V81.2553Z" fill="url(#paint0_radial_200_170)"/>
<path d="M0 132.574C0 130.213 1.9147 128.298 4.2766 128.298H17.1064C19.4683 128.298 21.383 130.213 21.383 132.574V145.404C21.383 147.766 19.4683 149.681 17.1064 149.681H4.2766C1.9147 149.681 0 147.766 0 145.404V132.574Z" fill="url(#paint1_radial_200_170)"/>
<path d="M25.6596 81.2553C25.6596 78.8934 27.5743 76.9787 29.9362 76.9787H42.766C45.1279 76.9787 47.0426 78.8934 47.0426 81.2553V94.0851C47.0426 96.447 45.1279 98.3617 42.766 98.3617H29.9362C27.5743 98.3617 25.6596 96.447 25.6596 94.0851V81.2553Z" fill="url(#paint2_radial_200_170)"/>
<path d="M25.6596 29.9362C25.6596 27.5743 27.5743 25.6596 29.9362 25.6596H42.766C45.1279 25.6596 47.0426 27.5743 47.0426 29.9362V42.766C47.0426 45.1279 45.1279 47.0426 42.766 47.0426H29.9362C27.5743 47.0426 25.6596 45.1279 25.6596 42.766V29.9362Z" fill="url(#paint3_radial_200_170)"/>
<path d="M25.6596 132.574C25.6596 130.213 27.5743 128.298 29.9362 128.298H42.766C45.1279 128.298 47.0426 130.213 47.0426 132.574V145.404C47.0426 147.766 45.1279 149.681 42.766 149.681H29.9362C27.5743 149.681 25.6596 147.766 25.6596 145.404V132.574Z" fill="url(#paint4_radial_200_170)"/>
<path d="M51.3191 81.2553C51.3191 78.8934 53.2338 76.9787 55.5957 76.9787H68.4255C70.7874 76.9787 72.7021 78.8934 72.7021 81.2553V94.0851C72.7021 96.447 70.7874 98.3617 68.4255 98.3617H55.5957C53.2338 98.3617 51.3191 96.447 51.3191 94.0851V81.2553Z" fill="url(#paint5_radial_200_170)"/>
<path d="M51.3191 29.9362C51.3191 27.5743 53.2338 25.6596 55.5957 25.6596H68.4255C70.7874 25.6596 72.7021 27.5743 72.7021 29.9362V42.766C72.7021 45.1279 70.7874 47.0426 68.4255 47.0426H55.5957C53.2338 47.0426 51.3191 45.1279 51.3191 42.766V29.9362Z" fill="url(#paint6_radial_200_170)"/>
<path d="M51.3191 132.574C51.3191 130.213 53.2338 128.298 55.5957 128.298H68.4255C70.7874 128.298 72.7021 130.213 72.7021 132.574V145.404C72.7021 147.766 70.7874 149.681 68.4255 149.681H55.5957C53.2338 149.681 51.3191 147.766 51.3191 145.404V132.574Z" fill="url(#paint7_radial_200_170)"/>
<path d="M51.3191 183.894C51.3191 181.532 53.2338 179.617 55.5957 179.617H68.4255C70.7874 179.617 72.7021 181.532 72.7021 183.894V196.723C72.7021 199.085 70.7874 201 68.4255 201H55.5957C53.2338 201 51.3191 199.085 51.3191 196.723V183.894Z" fill="url(#paint8_radial_200_170)"/>
<path d="M76.9787 81.2553C76.9787 78.8934 78.8934 76.9787 81.2553 76.9787H94.0851C96.447 76.9787 98.3617 78.8934 98.3617 81.2553V94.0851C98.3617 96.447 96.447 98.3617 94.0851 98.3617H81.2553C78.8934 98.3617 76.9787 96.447 76.9787 94.0851V81.2553Z" fill="url(#paint9_radial_200_170)"/>
<path d="M76.9787 29.9362C76.9787 27.5743 78.8934 25.6596 81.2553 25.6596H94.0851C96.447 25.6596 98.3617 27.5743 98.3617 29.9362V42.766C98.3617 45.1279 96.447 47.0426 94.0851 47.0426H81.2553C78.8934 47.0426 76.9787 45.1279 76.9787 42.766V29.9362Z" fill="url(#paint10_radial_200_170)"/>
<path d="M76.9787 132.574C76.9787 130.213 78.8934 128.298 81.2553 128.298H94.0851C96.447 128.298 98.3617 130.213 98.3617 132.574V145.404C98.3617 147.766 96.447 149.681 94.0851 149.681H81.2553C78.8934 149.681 76.9787 147.766 76.9787 145.404V132.574Z" fill="url(#paint11_radial_200_170)"/>
<path d="M76.9787 183.894C76.9787 181.532 78.8934 179.617 81.2553 179.617H94.0851C96.447 179.617 98.3617 181.532 98.3617 183.894V196.723C98.3617 199.085 96.447 201 94.0851 201H81.2553C78.8934 201 76.9787 199.085 76.9787 196.723V183.894Z" fill="url(#paint12_radial_200_170)"/>
<path d="M102.638 81.2553C102.638 78.8934 104.553 76.9787 106.915 76.9787H119.745C122.107 76.9787 124.021 78.8934 124.021 81.2553V94.0851C124.021 96.447 122.107 98.3617 119.745 98.3617H106.915C104.553 98.3617 102.638 96.447 102.638 94.0851V81.2553Z" fill="url(#paint13_radial_200_170)"/>
<path d="M102.638 29.9362C102.638 27.5743 104.553 25.6596 106.915 25.6596H119.745C122.107 25.6596 124.021 27.5743 124.021 29.9362V42.766C124.021 45.1279 122.107 47.0426 119.745 47.0426H106.915C104.553 47.0426 102.638 45.1279 102.638 42.766V29.9362Z" fill="url(#paint14_radial_200_170)"/>
<path d="M102.638 132.574C102.638 130.213 104.553 128.298 106.915 128.298H119.745C122.107 128.298 124.021 130.213 124.021 132.574V145.404C124.021 147.766 122.107 149.681 119.745 149.681H106.915C104.553 149.681 102.638 147.766 102.638 145.404V132.574Z" fill="url(#paint15_radial_200_170)"/>
<path d="M102.638 183.894C102.638 181.532 104.553 179.617 106.915 179.617H119.745C122.107 179.617 124.021 181.532 124.021 183.894V196.723C124.021 199.085 122.107 201 119.745 201H106.915C104.553 201 102.638 199.085 102.638 196.723V183.894Z" fill="url(#paint16_radial_200_170)"/>
<path d="M128.298 81.2553C128.298 78.8934 130.213 76.9787 132.574 76.9787H145.404C147.766 76.9787 149.681 78.8934 149.681 81.2553V94.0851C149.681 96.447 147.766 98.3617 145.404 98.3617H132.574C130.213 98.3617 128.298 96.447 128.298 94.0851V81.2553Z" fill="url(#paint17_radial_200_170)"/>
<path d="M128.298 29.9362C128.298 27.5743 130.213 25.6596 132.574 25.6596H145.404C147.766 25.6596 149.681 27.5743 149.681 29.9362V42.766C149.681 45.1279 147.766 47.0426 145.404 47.0426H132.574C130.213 47.0426 128.298 45.1279 128.298 42.766V29.9362Z" fill="url(#paint18_radial_200_170)"/>
<path d="M128.298 132.574C128.298 130.213 130.213 128.298 132.574 128.298H145.404C147.766 128.298 149.681 130.213 149.681 132.574V145.404C149.681 147.766 147.766 149.681 145.404 149.681H132.574C130.213 149.681 128.298 147.766 128.298 145.404V132.574Z" fill="url(#paint19_radial_200_170)"/>
<path d="M128.298 183.894C128.298 181.532 130.213 179.617 132.574 179.617H145.404C147.766 179.617 149.681 181.532 149.681 183.894V196.723C149.681 199.085 147.766 201 145.404 201H132.574C130.213 201 128.298 199.085 128.298 196.723V183.894Z" fill="url(#paint20_radial_200_170)"/>
<path d="M153.957 81.2553C153.957 78.8934 155.872 76.9787 158.234 76.9787H171.064C173.426 76.9787 175.34 78.8934 175.34 81.2553V94.0851C175.34 96.447 173.426 98.3617 171.064 98.3617H158.234C155.872 98.3617 153.957 96.447 153.957 94.0851V81.2553Z" fill="url(#paint21_radial_200_170)"/>
<path d="M153.957 29.9362C153.957 27.5743 155.872 25.6596 158.234 25.6596H171.064C173.426 25.6596 175.34 27.5743 175.34 29.9362V42.766C175.34 45.1279 173.426 47.0426 171.064 47.0426H158.234C155.872 47.0426 153.957 45.1279 153.957 42.766V29.9362Z" fill="url(#paint22_radial_200_170)"/>
<path d="M153.957 132.574C153.957 130.213 155.872 128.298 158.234 128.298H171.064C173.426 128.298 175.34 130.213 175.34 132.574V145.404C175.34 147.766 173.426 149.681 171.064 149.681H158.234C155.872 149.681 153.957 147.766 153.957 145.404V132.574Z" fill="url(#paint23_radial_200_170)"/>
<path d="M179.617 81.2553C179.617 78.8934 181.532 76.9787 183.894 76.9787H196.723C199.085 76.9787 201 78.8934 201 81.2553V94.0851C201 96.447 199.085 98.3617 196.723 98.3617H183.894C181.532 98.3617 179.617 96.447 179.617 94.0851V81.2553Z" fill="url(#paint24_radial_200_170)"/>
<path d="M179.617 132.574C179.617 130.213 181.532 128.298 183.894 128.298H196.723C199.085 128.298 201 130.213 201 132.574V145.404C201 147.766 199.085 149.681 196.723 149.681H183.894C181.532 149.681 179.617 147.766 179.617 145.404V132.574Z" fill="url(#paint25_radial_200_170)"/>
<path d="M0 55.5957C0 53.2338 1.9147 51.3191 4.2766 51.3191H17.1064C19.4683 51.3191 21.383 53.2338 21.383 55.5957V68.4255C21.383 70.7874 19.4683 72.7021 17.1064 72.7021H4.2766C1.9147 72.7021 0 70.7874 0 68.4255V55.5957Z" fill="url(#paint26_radial_200_170)"/>
<path d="M0 106.915C0 104.553 1.9147 102.638 4.2766 102.638H17.1064C19.4683 102.638 21.383 104.553 21.383 106.915V119.745C21.383 122.107 19.4683 124.021 17.1064 124.021H4.2766C1.9147 124.021 0 122.107 0 119.745V106.915Z" fill="url(#paint27_radial_200_170)"/>
<path d="M25.6596 55.5957C25.6596 53.2338 27.5743 51.3191 29.9362 51.3191H42.766C45.1279 51.3191 47.0426 53.2338 47.0426 55.5957V68.4255C47.0426 70.7874 45.1279 72.7021 42.766 72.7021H29.9362C27.5743 72.7021 25.6596 70.7874 25.6596 68.4255V55.5957Z" fill="url(#paint28_radial_200_170)"/>
<path d="M25.6596 106.915C25.6596 104.553 27.5743 102.638 29.9362 102.638H42.766C45.1279 102.638 47.0426 104.553 47.0426 106.915V119.745C47.0426 122.107 45.1279 124.021 42.766 124.021H29.9362C27.5743 124.021 25.6596 122.107 25.6596 119.745V106.915Z" fill="url(#paint29_radial_200_170)"/>
<path d="M25.6596 158.234C25.6596 155.872 27.5743 153.957 29.9362 153.957H42.766C45.1279 153.957 47.0426 155.872 47.0426 158.234V171.064C47.0426 173.426 45.1279 175.34 42.766 175.34H29.9362C27.5743 175.34 25.6596 173.426 25.6596 171.064V158.234Z" fill="url(#paint30_radial_200_170)"/>
<path d="M51.3191 55.5957C51.3191 53.2338 53.2338 51.3191 55.5957 51.3191H68.4255C70.7874 51.3191 72.7021 53.2338 72.7021 55.5957V68.4255C72.7021 70.7874 70.7874 72.7021 68.4255 72.7021H55.5957C53.2338 72.7021 51.3191 70.7874 51.3191 68.4255V55.5957Z" fill="url(#paint31_radial_200_170)"/>
<path d="M51.3191 4.2766C51.3191 1.9147 53.2338 0 55.5957 0H68.4255C70.7874 0 72.7021 1.9147 72.7021 4.2766V17.1064C72.7021 19.4683 70.7874 21.383 68.4255 21.383H55.5957C53.2338 21.383 51.3191 19.4683 51.3191 17.1064V4.2766Z" fill="url(#paint32_radial_200_170)"/>
<path d="M51.3191 106.915C51.3191 104.553 53.2338 102.638 55.5957 102.638H68.4255C70.7874 102.638 72.7021 104.553 72.7021 106.915V119.745C72.7021 122.107 70.7874 124.021 68.4255 124.021H55.5957C53.2338 124.021 51.3191 122.107 51.3191 119.745V106.915Z" fill="url(#paint33_radial_200_170)"/>
<path d="M51.3191 158.234C51.3191 155.872 53.2338 153.957 55.5957 153.957H68.4255C70.7874 153.957 72.7021 155.872 72.7021 158.234V171.064C72.7021 173.426 70.7874 175.34 68.4255 175.34H55.5957C53.2338 175.34 51.3191 173.426 51.3191 171.064V158.234Z" fill="url(#paint34_radial_200_170)"/>
<path d="M76.9787 55.5957C76.9787 53.2338 78.8934 51.3191 81.2553 51.3191H94.0851C96.447 51.3191 98.3617 53.2338 98.3617 55.5957V68.4255C98.3617 70.7874 96.447 72.7021 94.0851 72.7021H81.2553C78.8934 72.7021 76.9787 70.7874 76.9787 68.4255V55.5957Z" fill="url(#paint35_radial_200_170)"/>
<path d="M76.9787 4.2766C76.9787 1.9147 78.8934 0 81.2553 0H94.0851C96.447 0 98.3617 1.9147 98.3617 4.2766V17.1064C98.3617 19.4683 96.447 21.383 94.0851 21.383H81.2553C78.8934 21.383 76.9787 19.4683 76.9787 17.1064V4.2766Z" fill="url(#paint36_radial_200_170)"/>
<path d="M76.9787 106.915C76.9787 104.553 78.8934 102.638 81.2553 102.638H94.0851C96.447 102.638 98.3617 104.553 98.3617 106.915V119.745C98.3617 122.107 96.447 124.021 94.0851 124.021H81.2553C78.8934 124.021 76.9787 122.107 76.9787 119.745V106.915Z" fill="url(#paint37_radial_200_170)"/>
<path d="M76.9787 158.234C76.9787 155.872 78.8934 153.957 81.2553 153.957H94.0851C96.447 153.957 98.3617 155.872 98.3617 158.234V171.064C98.3617 173.426 96.447 175.34 94.0851 175.34H81.2553C78.8934 175.34 76.9787 173.426 76.9787 171.064V158.234Z" fill="url(#paint38_radial_200_170)"/>
<path d="M102.638 55.5957C102.638 53.2338 104.553 51.3191 106.915 51.3191H119.745C122.107 51.3191 124.021 53.2338 124.021 55.5957V68.4255C124.021 70.7874 122.107 72.7021 119.745 72.7021H106.915C104.553 72.7021 102.638 70.7874 102.638 68.4255V55.5957Z" fill="url(#paint39_radial_200_170)"/>
<path d="M102.638 4.2766C102.638 1.9147 104.553 0 106.915 0H119.745C122.107 0 124.021 1.9147 124.021 4.2766V17.1064C124.021 19.4683 122.107 21.383 119.745 21.383H106.915C104.553 21.383 102.638 19.4683 102.638 17.1064V4.2766Z" fill="url(#paint40_radial_200_170)"/>
<path d="M102.638 106.915C102.638 104.553 104.553 102.638 106.915 102.638H119.745C122.107 102.638 124.021 104.553 124.021 106.915V119.745C124.021 122.107 122.107 124.021 119.745 124.021H106.915C104.553 124.021 102.638 122.107 102.638 119.745V106.915Z" fill="url(#paint41_radial_200_170)"/>
<path d="M102.638 158.234C102.638 155.872 104.553 153.957 106.915 153.957H119.745C122.107 153.957 124.021 155.872 124.021 158.234V171.064C124.021 173.426 122.107 175.34 119.745 175.34H106.915C104.553 175.34 102.638 173.426 102.638 171.064V158.234Z" fill="url(#paint42_radial_200_170)"/>
<path d="M128.298 55.5957C128.298 53.2338 130.213 51.3191 132.574 51.3191H145.404C147.766 51.3191 149.681 53.2338 149.681 55.5957V68.4255C149.681 70.7874 147.766 72.7021 145.404 72.7021H132.574C130.213 72.7021 128.298 70.7874 128.298 68.4255V55.5957Z" fill="url(#paint43_radial_200_170)"/>
<path d="M128.298 4.2766C128.298 1.9147 130.213 0 132.574 0H145.404C147.766 0 149.681 1.9147 149.681 4.2766V17.1064C149.681 19.4683 147.766 21.383 145.404 21.383H132.574C130.213 21.383 128.298 19.4683 128.298 17.1064V4.2766Z" fill="url(#paint44_radial_200_170)"/>
<path d="M128.298 106.915C128.298 104.553 130.213 102.638 132.574 102.638H145.404C147.766 102.638 149.681 104.553 149.681 106.915V119.745C149.681 122.107 147.766 124.021 145.404 124.021H132.574C130.213 124.021 128.298 122.107 128.298 119.745V106.915Z" fill="url(#paint45_radial_200_170)"/>
<path d="M128.298 158.234C128.298 155.872 130.213 153.957 132.574 153.957H145.404C147.766 153.957 149.681 155.872 149.681 158.234V171.064C149.681 173.426 147.766 175.34 145.404 175.34H132.574C130.213 175.34 128.298 173.426 128.298 171.064V158.234Z" fill="url(#paint46_radial_200_170)"/>
<path d="M153.957 55.5957C153.957 53.2338 155.872 51.3191 158.234 51.3191H171.064C173.426 51.3191 175.34 53.2338 175.34 55.5957V68.4255C175.34 70.7874 173.426 72.7021 171.064 72.7021H158.234C155.872 72.7021 153.957 70.7874 153.957 68.4255V55.5957Z" fill="url(#paint47_radial_200_170)"/>
<path d="M153.957 106.915C153.957 104.553 155.872 102.638 158.234 102.638H171.064C173.426 102.638 175.34 104.553 175.34 106.915V119.745C175.34 122.107 173.426 124.021 171.064 124.021H158.234C155.872 124.021 153.957 122.107 153.957 119.745V106.915Z" fill="url(#paint48_radial_200_170)"/>
<path d="M153.957 158.234C153.957 155.872 155.872 153.957 158.234 153.957H171.064C173.426 153.957 175.34 155.872 175.34 158.234V171.064C175.34 173.426 173.426 175.34 171.064 175.34H158.234C155.872 175.34 153.957 173.426 153.957 171.064V158.234Z" fill="url(#paint49_radial_200_170)"/>
<path d="M179.617 55.5957C179.617 53.2338 181.532 51.3191 183.894 51.3191H196.723C199.085 51.3191 201 53.2338 201 55.5957V68.4255C201 70.7874 199.085 72.7021 196.723 72.7021H183.894C181.532 72.7021 179.617 70.7874 179.617 68.4255V55.5957Z" fill="url(#paint50_radial_200_170)"/>
<path d="M179.617 106.915C179.617 104.553 181.532 102.638 183.894 102.638H196.723C199.085 102.638 201 104.553 201 106.915V119.745C201 122.107 199.085 124.021 196.723 124.021H183.894C181.532 124.021 179.617 122.107 179.617 119.745V106.915Z" fill="url(#paint51_radial_200_170)"/>
<defs>
<radialGradient id="paint0_radial_200_170" cx="0" cy="0" r="1" gradientUnits="userSpaceOnUse" gradientTransform="translate(100.5 100.5) rotate(90) scale(100.5)">
<stop offset="0.235577" stop-color="#04264D"/>
<stop offset="1" stop-color="#000203"/>
</radialGradient>
<radialGradient id="paint1_radial_200_170" cx="0" cy="0" r="1" gradientUnits="userSpaceOnUse" gradientTransform="translate(100.5 100.5) rotate(90) scale(100.5)">
<stop offset="0.235577" stop-color="#04264D"/>
<stop offset="1" stop-color="#000203"/>
</radialGradient>
<radialGradient id="paint2_radial_200_170" cx="0" cy="0" r="1" gradientUnits="userSpaceOnUse" gradientTransform="translate(100.5 100.5) rotate(90) scale(100.5)">
<stop offset="0.235577" stop-color="#04264D"/>
<stop offset="1" stop-color="#000203"/>
</radialGradient>
<radialGradient id="paint3_radial_200_170" cx="0" cy="0" r="1" gradientUnits="userSpaceOnUse" gradientTransform="translate(100.5 100.5) rotate(90) scale(100.5)">
<stop offset="0.235577" stop-color="#04264D"/>
<stop offset="1" stop-color="#000203"/>
</radialGradient>
<radialGradient id="paint4_radial_200_170" cx="0" cy="0" r="1" gradientUnits="userSpaceOnUse" gradientTransform="translate(100.5 100.5) rotate(90) scale(100.5)">
<stop offset="0.235577" stop-color="#04264D"/>
<stop offset="1" stop-color="#000203"/>
</radialGradient>
<radialGradient id="paint5_radial_200_170" cx="0" cy="0" r="1" gradientUnits="userSpaceOnUse" gradientTransform="translate(100.5 100.5) rotate(90) scale(100.5)">
<stop offset="0.235577" stop-color="#04264D"/>
<stop offset="1" stop-color="#000203"/>
</radialGradient>
<radialGradient id="paint6_radial_200_170" cx="0" cy="0" r="1" gradientUnits="userSpaceOnUse" gradientTransform="translate(100.5 100.5) rotate(90) scale(100.5)">
<stop offset="0.235577" stop-color="#04264D"/>
<stop offset="1" stop-color="#000203"/>
</radialGradient>
<radialGradient id="paint7_radial_200_170" cx="0" cy="0" r="1" gradientUnits="userSpaceOnUse" gradientTransform="translate(100.5 100.5) rotate(90) scale(100.5)">
<stop offset="0.235577" stop-color="#04264D"/>
<stop offset="1" stop-color="#000203"/>
</radialGradient>
<radialGradient id="paint8_radial_200_170" cx="0" cy="0" r="1" gradientUnits="userSpaceOnUse" gradientTransform="translate(100.5 100.5) rotate(90) scale(100.5)">
<stop offset="0.235577" stop-color="#04264D"/>
<stop offset="1" stop-color="#000203"/>
</radialGradient>
<radialGradient id="paint9_radial_200_170" cx="0" cy="0" r="1" gradientUnits="userSpaceOnUse" gradientTransform="translate(100.5 100.5) rotate(90) scale(100.5)">
<stop offset="0.235577" stop-color="#04264D"/>
<stop offset="1" stop-color="#000203"/>
</radialGradient>
<radialGradient id="paint10_radial_200_170" cx="0" cy="0" r="1" gradientUnits="userSpaceOnUse" gradientTransform="translate(100.5 100.5) rotate(90) scale(100.5)">
<stop offset="0.235577" stop-color="#04264D"/>
<stop offset="1" stop-color="#000203"/>
</radialGradient>
<radialGradient id="paint11_radial_200_170" cx="0" cy="0" r="1" gradientUnits="userSpaceOnUse" gradientTransform="translate(100.5 100.5) rotate(90) scale(100.5)">
<stop offset="0.235577" stop-color="#04264D"/>
<stop offset="1" stop-color="#000203"/>
</radialGradient>
<radialGradient id="paint12_radial_200_170" cx="0" cy="0" r="1" gradientUnits="userSpaceOnUse" gradientTransform="translate(100.5 100.5) rotate(90) scale(100.5)">
<stop offset="0.235577" stop-color="#04264D"/>
<stop offset="1" stop-color="#000203"/>
</radialGradient>
<radialGradient id="paint13_radial_200_170" cx="0" cy="0" r="1" gradientUnits="userSpaceOnUse" gradientTransform="translate(100.5 100.5) rotate(90) scale(100.5)">
<stop offset="0.235577" stop-color="#04264D"/>
<stop offset="1" stop-color="#000203"/>
</radialGradient>
<radialGradient id="paint14_radial_200_170" cx="0" cy="0" r="1" gradientUnits="userSpaceOnUse" gradientTransform="translate(100.5 100.5) rotate(90) scale(100.5)">
<stop offset="0.235577" stop-color="#04264D"/>
<stop offset="1" stop-color="#000203"/>
</radialGradient>
<radialGradient id="paint15_radial_200_170" cx="0" cy="0" r="1" gradientUnits="userSpaceOnUse" gradientTransform="translate(100.5 100.5) rotate(90) scale(100.5)">
<stop offset="0.235577" stop-color="#04264D"/>
<stop offset="1" stop-color="#000203"/>
</radialGradient>
<radialGradient id="paint16_radial_200_170" cx="0" cy="0" r="1" gradientUnits="userSpaceOnUse" gradientTransform="translate(100.5 100.5) rotate(90) scale(100.5)">
<stop offset="0.235577" stop-color="#04264D"/>
<stop offset="1" stop-color="#000203"/>
</radialGradient>
<radialGradient id="paint17_radial_200_170" cx="0" cy="0" r="1" gradientUnits="userSpaceOnUse" gradientTransform="translate(100.5 100.5) rotate(90) scale(100.5)">
<stop offset="0.235577" stop-color="#04264D"/>
<stop offset="1" stop-color="#000203"/>
</radialGradient>
<radialGradient id="paint18_radial_200_170" cx="0" cy="0" r="1" gradientUnits="userSpaceOnUse" gradientTransform="translate(100.5 100.5) rotate(90) scale(100.5)">
<stop offset="0.235577" stop-color="#04264D"/>
<stop offset="1" stop-color="#000203"/>
</radialGradient>
<radialGradient id="paint19_radial_200_170" cx="0" cy="0" r="1" gradientUnits="userSpaceOnUse" gradientTransform="translate(100.5 100.5) rotate(90) scale(100.5)">
<stop offset="0.235577" stop-color="#04264D"/>
<stop offset="1" stop-color="#000203"/>
</radialGradient>
<radialGradient id="paint20_radial_200_170" cx="0" cy="0" r="1" gradientUnits="userSpaceOnUse" gradientTransform="translate(100.5 100.5) rotate(90) scale(100.5)">
<stop offset="0.235577" stop-color="#04264D"/>
<stop offset="1" stop-color="#000203"/>
</radialGradient>
<radialGradient id="paint21_radial_200_170" cx="0" cy="0" r="1" gradientUnits="userSpaceOnUse" gradientTransform="translate(100.5 100.5) rotate(90) scale(100.5)">
<stop offset="0.235577" stop-color="#04264D"/>
<stop offset="1" stop-color="#000203"/>
</radialGradient>
<radialGradient id="paint22_radial_200_170" cx="0" cy="0" r="1" gradientUnits="userSpaceOnUse" gradientTransform="translate(100.5 100.5) rotate(90) scale(100.5)">
<stop offset="0.235577" stop-color="#04264D"/>
<stop offset="1" stop-color="#000203"/>
</radialGradient>
<radialGradient id="paint23_radial_200_170" cx="0" cy="0" r="1" gradientUnits="userSpaceOnUse" gradientTransform="translate(100.5 100.5) rotate(90) scale(100.5)">
<stop offset="0.235577" stop-color="#04264D"/>
<stop offset="1" stop-color="#000203"/>
</radialGradient>
<radialGradient id="paint24_radial_200_170" cx="0" cy="0" r="1" gradientUnits="userSpaceOnUse" gradientTransform="translate(100.5 100.5) rotate(90) scale(100.5)">
<stop offset="0.235577" stop-color="#04264D"/>
<stop offset="1" stop-color="#000203"/>
</radialGradient>
<radialGradient id="paint25_radial_200_170" cx="0" cy="0" r="1" gradientUnits="userSpaceOnUse" gradientTransform="translate(100.5 100.5) rotate(90) scale(100.5)">
<stop offset="0.235577" stop-color="#04264D"/>
<stop offset="1" stop-color="#000203"/>
</radialGradient>
<radialGradient id="paint26_radial_200_170" cx="0" cy="0" r="1" gradientUnits="userSpaceOnUse" gradientTransform="translate(100.5 100.5) rotate(90) scale(100.5)">
<stop offset="0.235577" stop-color="#04264D"/>
<stop offset="1" stop-color="#000203"/>
</radialGradient>
<radialGradient id="paint27_radial_200_170" cx="0" cy="0" r="1" gradientUnits="userSpaceOnUse" gradientTransform="translate(100.5 100.5) rotate(90) scale(100.5)">
<stop offset="0.235577" stop-color="#04264D"/>
<stop offset="1" stop-color="#000203"/>
</radialGradient>
<radialGradient id="paint28_radial_200_170" cx="0" cy="0" r="1" gradientUnits="userSpaceOnUse" gradientTransform="translate(100.5 100.5) rotate(90) scale(100.5)">
<stop offset="0.235577" stop-color="#04264D"/>
<stop offset="1" stop-color="#000203"/>
</radialGradient>
<radialGradient id="paint29_radial_200_170" cx="0" cy="0" r="1" gradientUnits="userSpaceOnUse" gradientTransform="translate(100.5 100.5) rotate(90) scale(100.5)">
<stop offset="0.235577" stop-color="#04264D"/>
<stop offset="1" stop-color="#000203"/>
</radialGradient>
<radialGradient id="paint30_radial_200_170" cx="0" cy="0" r="1" gradientUnits="userSpaceOnUse" gradientTransform="translate(100.5 100.5) rotate(90) scale(100.5)">
<stop offset="0.235577" stop-color="#04264D"/>
<stop offset="1" stop-color="#000203"/>
</radialGradient>
<radialGradient id="paint31_radial_200_170" cx="0" cy="0" r="1" gradientUnits="userSpaceOnUse" gradientTransform="translate(100.5 100.5) rotate(90) scale(100.5)">
<stop offset="0.235577" stop-color="#04264D"/>
<stop offset="1" stop-color="#000203"/>
</radialGradient>
<radialGradient id="paint32_radial_200_170" cx="0" cy="0" r="1" gradientUnits="userSpaceOnUse" gradientTransform="translate(100.5 100.5) rotate(90) scale(100.5)">
<stop offset="0.235577" stop-color="#04264D"/>
<stop offset="1" stop-color="#000203"/>
</radialGradient>
<radialGradient id="paint33_radial_200_170" cx="0" cy="0" r="1" gradientUnits="userSpaceOnUse" gradientTransform="translate(100.5 100.5) rotate(90) scale(100.5)">
<stop offset="0.235577" stop-color="#04264D"/>
<stop offset="1" stop-color="#000203"/>
</radialGradient>
<radialGradient id="paint34_radial_200_170" cx="0" cy="0" r="1" gradientUnits="userSpaceOnUse" gradientTransform="translate(100.5 100.5) rotate(90) scale(100.5)">
<stop offset="0.235577" stop-color="#04264D"/>
<stop offset="1" stop-color="#000203"/>
</radialGradient>
<radialGradient id="paint35_radial_200_170" cx="0" cy="0" r="1" gradientUnits="userSpaceOnUse" gradientTransform="translate(100.5 100.5) rotate(90) scale(100.5)">
<stop offset="0.235577" stop-color="#04264D"/>
<stop offset="1" stop-color="#000203"/>
</radialGradient>
<radialGradient id="paint36_radial_200_170" cx="0" cy="0" r="1" gradientUnits="userSpaceOnUse" gradientTransform="translate(100.5 100.5) rotate(90) scale(100.5)">
<stop offset="0.235577" stop-color="#04264D"/>
<stop offset="1" stop-color="#000203"/>
</radialGradient>
<radialGradient id="paint37_radial_200_170" cx="0" cy="0" r="1" gradientUnits="userSpaceOnUse" gradientTransform="translate(100.5 100.5) rotate(90) scale(100.5)">
<stop offset="0.235577" stop-color="#04264D"/>
<stop offset="1" stop-color="#000203"/>
</radialGradient>
<radialGradient id="paint38_radial_200_170" cx="0" cy="0" r="1" gradientUnits="userSpaceOnUse" gradientTransform="translate(100.5 100.5) rotate(90) scale(100.5)">
<stop offset="0.235577" stop-color="#04264D"/>
<stop offset="1" stop-color="#000203"/>
</radialGradient>
<radialGradient id="paint39_radial_200_170" cx="0" cy="0" r="1" gradientUnits="userSpaceOnUse" gradientTransform="translate(100.5 100.5) rotate(90) scale(100.5)">
<stop offset="0.235577" stop-color="#04264D"/>
<stop offset="1" stop-color="#000203"/>
</radialGradient>
<radialGradient id="paint40_radial_200_170" cx="0" cy="0" r="1" gradientUnits="userSpaceOnUse" gradientTransform="translate(100.5 100.5) rotate(90) scale(100.5)">
<stop offset="0.235577" stop-color="#04264D"/>
<stop offset="1" stop-color="#000203"/>
</radialGradient>
<radialGradient id="paint41_radial_200_170" cx="0" cy="0" r="1" gradientUnits="userSpaceOnUse" gradientTransform="translate(100.5 100.5) rotate(90) scale(100.5)">
<stop offset="0.235577" stop-color="#04264D"/>
<stop offset="1" stop-color="#000203"/>
</radialGradient>
<radialGradient id="paint42_radial_200_170" cx="0" cy="0" r="1" gradientUnits="userSpaceOnUse" gradientTransform="translate(100.5 100.5) rotate(90) scale(100.5)">
<stop offset="0.235577" stop-color="#04264D"/>
<stop offset="1" stop-color="#000203"/>
</radialGradient>
<radialGradient id="paint43_radial_200_170" cx="0" cy="0" r="1" gradientUnits="userSpaceOnUse" gradientTransform="translate(100.5 100.5) rotate(90) scale(100.5)">
<stop offset="0.235577" stop-color="#04264D"/>
<stop offset="1" stop-color="#000203"/>
</radialGradient>
<radialGradient id="paint44_radial_200_170" cx="0" cy="0" r="1" gradientUnits="userSpaceOnUse" gradientTransform="translate(100.5 100.5) rotate(90) scale(100.5)">
<stop offset="0.235577" stop-color="#04264D"/>
<stop offset="1" stop-color="#000203"/>
</radialGradient>
<radialGradient id="paint45_radial_200_170" cx="0" cy="0" r="1" gradientUnits="userSpaceOnUse" gradientTransform="translate(100.5 100.5) rotate(90) scale(100.5)">
<stop offset="0.235577" stop-color="#04264D"/>
<stop offset="1" stop-color="#000203"/>
</radialGradient>
<radialGradient id="paint46_radial_200_170" cx="0" cy="0" r="1" gradientUnits="userSpaceOnUse" gradientTransform="translate(100.5 100.5) rotate(90) scale(100.5)">
<stop offset="0.235577" stop-color="#04264D"/>
<stop offset="1" stop-color="#000203"/>
</radialGradient>
<radialGradient id="paint47_radial_200_170" cx="0" cy="0" r="1" gradientUnits="userSpaceOnUse" gradientTransform="translate(100.5 100.5) rotate(90) scale(100.5)">
<stop offset="0.235577" stop-color="#04264D"/>
<stop offset="1" stop-color="#000203"/>
</radialGradient>
<radialGradient id="paint48_radial_200_170" cx="0" cy="0" r="1" gradientUnits="userSpaceOnUse" gradientTransform="translate(100.5 100.5) rotate(90) scale(100.5)">
<stop offset="0.235577" stop-color="#04264D"/>
<stop offset="1" stop-color="#000203"/>
</radialGradient>
<radialGradient id="paint49_radial_200_170" cx="0" cy="0" r="1" gradientUnits="userSpaceOnUse" gradientTransform="translate(100.5 100.5) rotate(90) scale(100.5)">
<stop offset="0.235577" stop-color="#04264D"/>
<stop offset="1" stop-color="#000203"/>
</radialGradient>
<radialGradient id="paint50_radial_200_170" cx="0" cy="0" r="1" gradientUnits="userSpaceOnUse" gradientTransform="translate(100.5 100.5) rotate(90) scale(100.5)">
<stop offset="0.235577" stop-color="#04264D"/>
<stop offset="1" stop-color="#000203"/>
</radialGradient>
<radialGradient id="paint51_radial_200_170" cx="0" cy="0" r="1" gradientUnits="userSpaceOnUse" gradientTransform="translate(100.5 100.5) rotate(90) scale(100.5)">
<stop offset="0.235577" stop-color="#04264D"/>
<stop offset="1" stop-color="#000203"/>
</radialGradient>
</defs>
</svg>
