<svg width="40" height="54" viewBox="0 0 40 54" fill="none" xmlns="http://www.w3.org/2000/svg">
<path d="M19.4541 1.5C22.9591 1.5 26.0873 2.12117 28.7959 3.41504H28.7969C31.504 4.68612 33.6583 6.47951 35.2041 8.80664C36.7587 11.1472 37.5224 13.8191 37.5225 16.7725C37.5225 18.73 37.1334 20.6525 36.3701 22.5312L36.3711 22.5322C35.6087 24.4466 34.2827 26.4871 32.4668 28.6475L32.4629 28.6514C30.6541 30.7876 28.1374 33.3158 24.9365 36.2305L20.4395 40.6367H38.1367V51.6816H1.9541V42.4355L2.43555 41.9902L18.9795 26.6719C20.3684 25.3278 21.5198 24.1311 22.4395 23.0801L22.4473 23.0713C23.3441 22.0623 23.99 21.1123 24.416 20.2236C24.8172 19.3725 25.0225 18.4482 25.0225 17.4316C25.0224 16.302 24.768 15.4157 24.3223 14.709L24.1328 14.4248C23.6849 13.8018 23.1075 13.3167 22.3818 12.959L22.375 12.9551L22.3672 12.9512C21.5278 12.5256 20.5455 12.2959 19.3867 12.2959C18.1674 12.2959 17.1794 12.5409 16.375 12.9775C15.5751 13.4117 14.9664 14.0236 14.5273 14.8438C14.0908 15.6594 13.8408 16.6866 13.8408 17.9775V19.4775H1.5V17.9775C1.5 14.6991 2.24444 11.7736 3.79004 9.25977C5.32459 6.76401 7.4754 4.84143 10.1992 3.49609C12.9229 2.15088 16.0205 1.50006 19.4541 1.5Z" stroke="#ACACAC" stroke-width="3"/>
</svg>
