<svg width="42" height="54" viewBox="0 0 42 54" fill="none" xmlns="http://www.w3.org/2000/svg">
<path d="M20.8466 1.5C24.2403 1.50005 27.282 2.11728 29.9316 3.40039C32.5462 4.66658 34.6308 6.40439 36.1288 8.62988C37.6517 10.8543 38.405 13.3608 38.3915 16.1045C38.4087 19.057 37.4779 21.6139 35.5536 23.6631L35.5527 23.6621C34.7051 24.572 33.7436 25.3239 32.6767 25.9238C34.3859 26.6106 35.8488 27.5808 37.0312 28.8604C39.1197 31.0893 40.1326 33.8754 40.1191 37.1055L40.1113 37.6582C40.0239 40.407 39.1622 42.8969 37.5234 45.082L37.5224 45.0811C35.8153 47.3775 33.4826 49.1491 30.5849 50.4189C27.6666 51.6978 24.3645 52.3183 20.7099 52.3184C17.1432 52.3184 13.9088 51.705 11.037 50.4414L11.0282 50.4365C8.18759 49.1631 5.88922 47.3902 4.18742 45.0986L4.17961 45.0889C2.47177 42.749 1.60104 40.051 1.5507 37.0479L1.52531 35.5225H14.3818L14.4579 36.9424C14.5024 37.7764 14.7657 38.4745 15.2441 39.084C15.7619 39.7095 16.4681 40.2259 17.413 40.6113C18.3585 40.9969 19.4572 41.2041 20.7323 41.2041C22.0548 41.2041 23.1601 40.9714 24.082 40.5469C25.0173 40.1161 25.699 39.5454 26.1816 38.8496C26.6459 38.18 26.8915 37.3995 26.8915 36.4541C26.8914 35.5126 26.634 34.7279 26.1347 34.0439L26.1269 34.0332L26.1191 34.0215C25.6257 33.3199 24.8831 32.7235 23.8066 32.2676L23.8007 32.2646C22.7578 31.8177 21.4534 31.5684 19.8466 31.5684H14.0048V21.3408H19.8466C21.1577 21.3408 22.2508 21.1139 23.1591 20.7021L23.165 20.6992C24.1009 20.2805 24.7662 19.7316 25.2265 19.0762C25.6725 18.4265 25.914 17.6552 25.914 16.7041C25.9139 15.7883 25.6974 15.053 25.3085 14.4434L25.2929 14.418C24.9041 13.7808 24.3508 13.2697 23.5849 12.8867L23.5761 12.8828C22.8387 12.5085 21.9281 12.2959 20.8007 12.2959C19.6531 12.2959 18.6413 12.5032 17.7441 12.8965L17.7363 12.9004L17.7275 12.9033C16.8402 13.2802 16.1722 13.8002 15.6777 14.4521C15.2106 15.0678 14.9475 15.7966 14.913 16.6943L14.8573 18.1367H2.45695L2.48235 16.6113C2.53268 13.6416 3.3873 10.9743 5.06438 8.66406C6.71491 6.39047 8.92625 4.63427 11.6532 3.38574C14.4057 2.11732 17.4801 1.5 20.8466 1.5Z" stroke="#ACACAC" stroke-width="3"/>
</svg>
