<svg width="563" height="588" viewBox="0 0 563 588" fill="none" xmlns="http://www.w3.org/2000/svg">
<path d="M297.312 586.723C294.163 584.971 292.05 581.206 292.002 577.261C291.975 575.04 293.104 573.122 296.151 570.213L300.336 566.216V534.71V503.204L292.488 495.403C285.371 488.329 282.87 484.206 285.697 484.206C286.279 484.206 290.517 487.813 295.116 492.223L303.476 500.24V533.737V567.234L305.83 568.138C309.919 569.708 312.323 573.314 312.323 577.877C312.323 585.559 304.017 590.454 297.312 586.723ZM307.186 582.46C308.599 581.042 309.755 578.894 309.755 577.686C309.755 574.788 305.228 570.334 302.283 570.334C299.153 570.334 295.104 574.308 295.104 577.381C295.104 584.47 302.208 587.456 307.186 582.46ZM224.181 569.165C213.234 567.53 203.916 563.281 191.317 554.177C188.625 552.231 184.622 550.312 182.422 549.912C173.452 548.283 163.148 541.948 153.308 532.013C142.519 521.121 136.186 517.499 125.043 515.846C102.156 512.453 80.2793 494.37 73.1895 472.986C71.9325 469.195 70.0749 465.324 69.0615 464.384C58.1751 454.282 54.9917 450.472 51.8377 443.768C49.9353 439.724 48.0996 435.194 47.7584 433.701C47.4173 432.208 43.7105 427.481 39.5213 423.197C26.9155 410.307 19.9075 393.524 19.8621 376.116C19.8414 368.158 19.832 368.131 14.616 361.437C4.83054 348.879 0 335.464 0 320.848C0 311.205 1.94538 303.384 6.29117 295.555L9.27021 290.188L5.98293 280.85C2.97721 272.312 2.69364 270.388 2.67236 258.383C2.63574 237.686 7.90491 223.107 20.4916 209.08L27.2082 201.595V190.244C27.2082 176.238 29.6005 166.103 35.7401 154.099C39.3361 147.067 42.213 143.432 51.2956 134.443C61.5104 124.334 62.6845 122.758 65.3822 115.537C69.9792 103.232 76.0062 93.6898 84.6755 84.9904C95.9302 73.6966 108.535 66.7885 123.714 63.5947C125.688 63.1794 127.84 61.1055 130.733 56.8304C141.975 40.2141 164.004 28.3591 183.637 28.3591C189.505 28.3591 190.759 27.9273 197.539 23.5737C208.446 16.5695 215.162 14.4351 228.052 13.8758C240.237 13.3472 247.664 14.5897 256.121 18.5713C263.879 22.2241 272.639 30.6393 276.6 38.2448L279.93 44.6394L280.242 81.1386C280.414 101.213 280.812 117.638 281.127 117.638C281.442 117.638 283.057 116.668 284.716 115.483L287.731 113.328L288.016 94.7521C288.274 78.0288 288.485 76.1413 290.133 75.8234C291.815 75.4992 291.965 76.8251 291.965 92.0407V108.611L296.151 104.509L300.336 100.406V60.7772C300.336 22.2453 300.279 21.1301 298.271 20.4903C294.803 19.3857 291.965 14.7902 291.965 10.2809C291.965 4.71272 296.448 0 301.745 0C306.254 0 311.419 4.05206 312.353 8.3223C313.316 12.7204 310.623 18.3442 306.726 20.0757L303.476 21.5196V61.7937V102.068L291.972 114.317L280.468 126.566L280.46 164.167C280.453 205.056 280.238 203.811 286.079 196.787L288.825 193.484V162.236V130.987L300.336 118.642L311.848 106.297V78.3564C311.848 51.1165 311.9 50.4162 313.941 50.4162C315.982 50.4162 316.033 51.1164 316.033 78.9138V107.411L303.999 120.286L291.965 133.16V143.478V153.796L296.971 148.846C299.725 146.124 302.523 143.896 303.188 143.896C306.417 143.896 305.123 146.665 298.843 153.194L291.965 160.345V178.457V196.569L286.209 202.626C281.122 207.978 280.454 209.19 280.454 213.051C280.454 215.454 280.817 217.42 281.26 217.42C281.704 217.42 286.178 213.275 291.202 208.209L300.336 198.997V183.237V167.476L308.185 159.651C314.514 153.341 316.032 151.211 316.027 148.649C316.022 146.22 315.28 145.049 312.878 143.677C308.644 141.259 307.16 137.166 308.671 132.076C311.02 124.162 320.216 121.917 325.584 127.948C329.639 132.502 329.684 137.71 325.703 141.705C324.115 143.299 322.201 144.809 321.449 145.06C320.698 145.312 319.943 147.298 319.771 149.473C319.508 152.797 318.179 154.748 311.467 161.672L303.476 169.914V185.471V201.029L291.965 212.739L280.454 224.45V243.497V262.544L283.331 263.127C288.458 264.166 297.134 269.062 300.338 272.725C305.593 278.732 307.949 284.502 308.48 292.665C308.904 299.18 308.602 300.969 306.167 306.319C301.644 316.261 293.627 322.83 283.331 325.03L280.454 325.645L280.442 343.218L280.43 360.791L298.298 378.484L316.166 396.177L315.421 421.298L314.675 446.419L321.633 452.862L328.591 459.305V487.949V516.592L340.704 528.039C351.381 538.13 352.618 539.651 351.145 540.879C349.687 542.093 347.922 540.731 337.398 530.275L325.323 518.278L325.417 490.084L325.512 461.89L318.68 455.564L311.848 449.237V423.23V397.222L296.412 381.9C287.923 373.473 280.859 366.576 280.715 366.573C280.571 366.57 280.454 369.007 280.454 371.989V377.41L291.965 388.952L303.476 400.493V429.456V458.42L310.406 465.429C316.47 471.563 318.06 474.753 315.053 474.753C314.582 474.753 311.084 471.562 307.279 467.663L300.362 460.573L300.349 431.668L300.336 402.763L290.395 392.826L280.454 382.89V388.682C280.454 394.31 280.616 394.634 286.209 400.179L291.965 405.884V437.753V469.622L303.999 481.234L316.033 492.846V510.881V528.917L321.789 534.622C326.443 539.235 327.545 540.987 327.545 543.777C327.545 546.143 327.052 547.226 325.975 547.226C325.081 547.226 324.405 546.282 324.405 545.034C324.405 543.785 321.705 540.021 318.126 536.28L311.848 529.717V511.967V494.217L300.32 482.614L288.793 471.011L288.672 439.533L288.552 408.056L285.344 404.643C283.579 402.765 281.757 401.229 281.295 401.229C280.832 401.229 280.448 430.415 280.441 466.087C280.428 535.018 280.358 536.099 275.306 546.018C272.233 552.051 265.446 559.336 259.809 562.652C250.032 568.403 236.115 570.947 224.181 569.165ZM244.392 559.262C256.44 556.137 266.271 547.027 269.609 535.895C271.147 530.766 271.726 489.977 270.25 490.736C261.118 495.434 258.97 496.002 252.178 495.514C247.188 495.156 243.646 494.17 239.799 492.068C234.146 488.98 233.921 488.704 235.29 486.539C235.959 485.481 237.122 485.644 240.768 487.304C245.874 489.629 254.515 490.115 259.194 488.34C260.815 487.726 263.493 485.953 265.147 484.402C270.6 479.284 271.265 476.124 271.842 452.56C272.134 440.643 272.071 429.689 271.703 428.217L271.034 425.541L265.249 429.038C255.062 435.194 241.853 435.886 225.515 431.119C220.507 429.658 219.619 429.69 213.653 431.554C202.066 435.173 193.079 442.374 188.214 451.937C185.208 457.846 184.418 468.68 186.61 473.945C187.568 476.247 187.834 478.109 187.255 478.468C184.036 480.465 180.046 471.317 180.016 461.871C179.993 454.992 179.884 454.699 176.592 452.684C171.685 449.681 165.764 450.055 156.264 453.968C149.307 456.833 146.607 457.373 138.312 457.557C125.062 457.85 122.558 460.092 121.463 472.652C121.135 476.407 120.435 479.479 119.908 479.479C119.38 479.479 118.272 477.441 117.444 474.95C115.574 469.319 116.443 462.543 119.646 457.772L121.983 454.292L116.018 450.422C109.165 445.976 102.342 437.87 98.6017 429.732C96.4778 425.11 96.2713 423.934 97.452 423.183C99.6139 421.809 99.6999 421.875 103.049 427.538C107.65 435.315 116.792 443.981 124.007 447.404C134.971 452.606 142.221 452.415 158.252 446.502C165.462 443.843 172.156 443.685 178.006 446.034C182.156 447.7 182.386 447.689 183.399 445.771C185.763 441.293 197.549 430.91 203.538 428.029C206.991 426.368 209.997 424.874 210.218 424.708C210.438 424.543 209.073 422.64 207.184 420.481C203.201 415.928 199.313 407.671 198.488 402.017C198.004 398.693 198.212 398.078 199.825 398.078C201.163 398.078 201.932 399.131 202.393 401.594C203.152 405.657 208.403 413.429 212.956 417.228C222.894 425.521 242.348 429.75 254.815 426.326C260.044 424.891 267.878 417.029 269.882 411.207C270.978 408.021 271.443 397.174 271.807 366.312C272.265 327.427 272.2 325.59 270.353 325.004C259.779 321.646 253.372 316.277 248.555 306.736C245.965 301.606 245.748 301.447 241.336 301.447C225.965 301.447 208.916 309.057 201.055 319.427C197.674 323.888 194.626 325.954 194.653 323.767C194.683 321.377 201.491 311.62 205.833 307.744C213.135 301.227 222.224 297.293 234.724 295.24L245.382 293.489L246.093 288.503C246.484 285.761 247.78 281.856 248.973 279.826L251.143 276.136L247.877 274.349C241.446 270.831 234.395 264.582 230.745 259.166C224.798 250.343 220.661 234.225 224.343 234.225C225.189 234.225 226.295 236.244 227.01 239.093C228.86 246.47 232.003 251.908 238.158 258.384C244.939 265.52 255.461 271.126 258.274 269.102C260.392 267.577 267.641 264.02 270.344 263.178C272.161 262.612 272.244 261.122 271.821 236.586C271.345 208.995 270.939 206.226 265.112 190.784C257.419 170.398 239.416 153.27 221.327 149.126C206.81 145.8 188.828 153.136 179.719 166.1C177.341 169.486 175.044 172.255 174.616 172.255C170.688 172.255 177.058 159.417 184.102 153.134C189.017 148.75 200.018 142.848 203.276 142.847C205.655 142.846 205.647 142.807 201.981 136.876C198.392 131.07 195.78 120.278 197.536 118.515C199.251 116.794 200.585 118.255 201.28 122.617C202.836 132.382 211.252 140.254 222.898 142.837C226.063 143.539 232.176 145.829 236.482 147.926C246.56 152.834 259.087 165.122 265.803 176.689C268.393 181.15 270.748 184.812 271.035 184.828C272.199 184.892 272.225 148.309 271.066 141.796C269.205 131.335 263.649 120.999 256.011 113.787C252.442 110.417 248.713 107.187 247.725 106.609C246.616 105.96 246.251 105.058 246.77 104.248C248.156 102.087 258.225 107.824 265.102 114.694C268.457 118.046 271.446 120.789 271.744 120.789C272.042 120.789 272.11 112.399 271.896 102.145C271.552 85.6391 271.242 82.918 269.191 78.4086C263.987 66.9637 255.127 58.3124 245.708 55.4801C240.163 53.8126 240.27 50.9928 245.849 51.744C251.958 52.5663 260.848 57.0135 266.103 61.8758C268.657 64.2383 270.929 66.1713 271.153 66.1713C271.376 66.1713 271.397 62.0356 271.198 56.9808C270.759 45.8213 268.466 39.8298 262.341 33.8389C253.749 25.4344 241.899 21.4351 228.216 22.3217C219.507 22.8861 212.12 25.1043 205.967 29.0029C202.096 31.4556 200.762 33.6108 203.115 33.6108C205.364 33.6108 210.34 37.9902 210.34 39.969C210.34 41.9287 210.192 41.9234 204.846 39.7708C197.164 36.6779 182.689 35.9565 173.714 38.2193C161.25 41.3616 144.71 51.3233 141.282 57.7517C140.321 59.5547 140.52 59.5732 145.219 58.1187C147.941 57.2761 154.642 56.3272 160.11 56.0102C168.178 55.5423 170.741 54.9708 173.714 52.9767C179.776 48.91 189.357 44.9191 191.28 45.6597C192.631 46.1801 191.57 47.1528 186.914 49.6602C183.391 51.5576 179.403 54.783 177.581 57.209L174.4 61.4448L163.33 61.5493C154.442 61.6332 151.026 62.1322 145.995 64.0814C137.795 67.2584 133.479 71.4777 134.43 75.3882C135.634 80.3375 138.144 82.078 142.337 80.871C144.334 80.2961 147.738 79.8256 149.9 79.8256C153.044 79.8256 153.831 80.2194 153.831 81.7921C153.831 83.2505 152.817 83.9236 149.907 84.3978C137.545 86.4115 124.55 100.083 122.797 112.918C122.391 115.888 121.623 117.638 120.725 117.638C119.684 117.638 119.3 116.004 119.308 111.598C119.321 103.863 122.974 95.7181 129.37 89.1693L134.092 84.3333L131.404 80.3574C129.925 78.1707 128.716 75.5022 128.716 74.4274C128.716 71.782 124.656 71.8588 116.39 74.6608C102.96 79.2129 88.0296 91.7996 80.2992 105.086C78.1314 108.812 74.8503 115.867 73.0079 120.762C70.4496 127.56 68.6737 130.539 65.4925 133.366C52.7684 144.677 47.0687 151.422 43.048 159.927C37.3718 171.934 34.4882 185.882 36.1304 193.387L36.8949 196.88L38.8919 191.778C40.7516 187.026 45.3595 179.475 50.1651 173.306C51.5344 171.548 52.5587 171.028 53.2641 171.733C53.9705 172.44 53.2426 174.516 51.0548 178.035C44.33 188.853 42.4919 194.909 42.4345 206.435C42.393 214.755 42.7668 217.572 44.2048 219.777C46.0022 222.533 46.0817 222.549 49.9227 220.938C55.8606 218.448 65.6276 219.398 71.0379 222.991C73.6808 224.747 75.3457 226.659 75.3457 227.938C75.3457 230.514 75.2017 230.514 70.3867 227.923C65.1247 225.093 56.5057 225.129 50.584 228.006C45.2728 230.586 37.4329 239 33.9963 245.807C30.9245 251.891 28.2546 262.083 28.2546 267.725C28.2546 270.739 27.8096 272.038 26.7769 272.038C24.8285 272.038 23.7188 265.261 24.5984 258.733C26.0652 247.847 29.4275 240.02 36.387 231.29L39.9831 226.779L37.7815 221.642C36.5706 218.817 35.5799 214.584 35.5799 212.236C35.5799 209.888 35.1507 207.967 34.6262 207.967C34.1016 207.967 30.8977 211.006 27.5064 214.721C11.7815 231.945 6.79563 257.473 14.8928 279.302C18.398 288.752 27.1417 301.662 27.2238 297.508C27.2321 297.075 28.8438 294.83 30.8049 292.519C33.3606 289.508 34.696 288.636 35.5197 289.442C36.3501 290.254 35.7199 292.413 33.2466 297.226C30.0803 303.388 29.8244 304.639 29.8251 313.958C29.826 324.33 31.8854 331.43 36.32 336.349C37.9605 338.168 38.1151 338.158 40.3089 336.089C42.2834 334.228 42.7621 334.144 43.8597 335.472C44.8806 336.706 44.6166 337.79 42.5081 341.021C34.7804 352.862 36.9324 372.219 47.1636 382.898C48.8504 384.659 50.2305 386.64 50.2305 387.3C50.2305 390.664 47.337 389.09 40.2692 381.88C35.9103 377.433 31.5768 373.92 30.4509 373.92C28.6407 373.92 28.4831 374.535 28.9034 379.96C29.8655 392.377 35.1707 405.053 43.4102 414.621C47.3012 419.139 49.1792 420.163 49.1899 417.772C49.2061 414.119 51.5221 408.581 53.0336 408.581C54.3691 408.581 54.5807 409.414 54.1204 412.858C53.137 420.217 55.1888 430.581 59.3037 439.041C64.2005 449.108 72.4888 457.331 82.9897 462.538C91.879 466.947 93.7187 467.305 92.126 464.318C90.7754 461.785 90.7226 458.998 92.0253 458.998C92.5658 458.998 96.2154 462.227 100.135 466.173C104.056 470.119 108.63 474.302 110.3 475.467C112.215 476.803 113.043 478.064 112.541 478.88C111.485 480.595 107.268 479.517 102.315 476.264C99.8774 474.664 96.892 473.702 94.3607 473.702C92.1321 473.702 88.8016 473.175 86.9596 472.531C85.1177 471.886 83.2956 471.675 82.9106 472.061C81.4614 473.516 87.5801 482.899 94.673 490.099C99.3922 494.889 104.45 498.793 108.777 500.985C116.418 504.854 123.579 507.567 124.284 506.86C124.545 506.598 123.826 505.057 122.688 503.435C120.55 500.39 116.158 492.077 116.158 491.075C116.158 489.14 119.361 491.56 126.919 499.204C132.211 504.555 138.094 509.301 142.218 511.545C146.424 513.834 152.462 518.737 158.438 524.717C172.205 538.493 184.977 544.19 197.013 541.922C201.571 541.062 206.154 539.288 206.154 538.382C206.154 538.18 203.711 537.213 200.724 536.232C191.409 533.174 182.085 525.467 182.085 520.826C182.085 518.049 183.331 518.385 186.86 522.116C191.708 527.24 199.408 530.66 207.399 531.238C211.25 531.516 215.21 531.432 216.199 531.051C217.793 530.437 217.681 530.027 215.215 527.444C212.389 524.482 211.498 520.968 213.575 520.968C214.203 520.968 216.547 522.54 218.784 524.462C224.49 529.364 233.208 533.412 242.349 535.403C246.791 536.37 249.995 537.586 249.786 538.226C249.084 540.364 238.113 540.087 231.22 537.756C225.518 535.828 224.017 535.697 219.658 536.747C216.308 537.553 214.08 538.825 212.929 540.588C211.983 542.037 208.592 544.425 205.394 545.895L199.578 548.567L202.081 550.482C214.058 559.644 230.094 562.972 244.392 559.262ZM232.835 515.391C229.384 513.552 223.664 509.21 220.124 505.741L213.687 499.436L207.196 502.754C199.428 506.726 195.969 509.591 194.61 513.177C193.278 516.695 191.504 515.453 191.504 511.003C191.504 507.48 191.476 507.461 185.487 506.73C182.177 506.327 176.801 505.173 173.54 504.167C168.389 502.577 167.223 502.526 164.645 503.781C163.014 504.576 160.738 506.639 159.586 508.367C158.435 510.095 156.905 511.51 156.185 511.512C154.423 511.516 154.556 507.4 156.421 504.162C157.254 502.718 158.244 500.933 158.621 500.197C159.045 499.368 156.752 496.506 152.614 492.701C148.933 489.316 144.609 484.126 143.005 481.168C140.348 476.267 140.251 475.728 141.914 475.087C143.183 474.599 144.219 475.16 145.318 476.932C150.538 485.349 164.063 494.844 175.735 498.285C183.631 500.613 197.118 500.462 202.492 497.985C209.116 494.932 210.72 492.512 209.874 486.85C208.111 475.048 216.116 462.782 228.715 457.979C236.631 454.961 250.374 454.358 250.907 457.005C251.179 458.352 249.938 458.826 244.693 459.376C240.767 459.788 235.61 461.299 231.827 463.145C224.122 466.906 222.865 467.908 219.37 473.078C217.197 476.292 216.624 478.385 216.642 483.039C216.687 494.578 223.008 503.121 240.522 515.31C240.719 515.446 240.481 516.273 239.994 517.146C239.241 518.497 238.172 518.234 232.835 515.391ZM78.6809 441.644C71.1515 434.85 66.5929 425.304 66.0883 415.274C65.8786 411.106 66.2696 405.997 66.9589 403.901C68.1719 400.212 68.0807 399.954 63.9889 395.499C57.2682 388.181 53.1354 378.964 52.547 369.982C52.1324 363.653 52.3165 362.367 53.6367 362.367C54.737 362.367 55.4379 363.9 55.9172 367.356C58.2425 384.119 73.1171 398.473 90.6659 400.887C94.1964 401.373 95.2286 401.958 95.2286 403.473C95.2286 405.151 94.3877 405.43 89.3328 405.43C86.0902 405.43 81.6014 404.878 79.3578 404.204C73.9357 402.573 72.9379 403.71 72.404 412.126C71.8057 421.556 74.2425 429.064 80.6657 437.582C87.2202 446.274 86.1771 448.409 78.6809 441.644ZM137.318 428.259C132.849 423.485 129.504 414.049 128.815 404.278C128.224 395.894 127.874 394.729 125.039 391.734C121.049 387.52 116.755 385.338 105.693 381.906C91.6741 377.556 87.9033 375.957 87.9033 374.359C87.9033 372.424 87.8039 372.416 102.799 375.566C114.934 378.116 123.22 381.17 128.389 384.998C130.609 386.642 130.749 386.557 132.934 382.259C135.562 377.088 143.182 368.584 149.017 364.307C156.743 358.645 158.742 361.658 151.366 367.847C145.492 372.774 139.912 381.26 137.168 389.436C133.279 401.023 134.624 417.489 140.089 425.193C141.889 427.73 142.04 428.514 140.908 429.457C139.858 430.331 138.985 430.04 137.318 428.259ZM165.571 410.945C165.157 409.934 164.832 405.089 164.848 400.179C164.874 392.418 165.3 390.358 168.103 384.424C177.762 363.978 199.827 353.736 219.338 360.642L223.421 362.087V352.388V342.688L219.235 344.332C216.151 345.543 211.054 345.99 199.875 346.031C185.825 346.082 184.028 345.86 175.6 343.031L166.499 339.975L162.851 342.768C158.091 346.413 156.97 346.291 156.97 342.129C156.97 337.794 152.919 331.729 147.292 327.637C140.617 322.784 134.211 321.396 119.799 321.68C107.478 321.924 107.078 321.858 100.268 318.493C93.9698 315.382 86.8569 309.14 86.8569 306.724C86.8569 304.446 89.1448 304.702 91.815 307.28C98.276 313.518 102.489 314.556 121.39 314.567C130.887 314.572 139.246 314.959 139.965 315.426C141.742 316.58 141.67 316.262 138.551 309.193C132.037 294.43 130.074 276.078 133.464 261.642C136.201 249.986 147.038 232.239 149.754 234.965C150.613 235.827 150.05 237.408 147.624 240.947C141.607 249.726 138.937 258.597 138.379 271.672C137.755 286.264 139.711 295.97 145.689 307.957C155.677 327.987 175.886 340.278 198.829 340.278C213.351 340.278 225.184 336.123 234.735 327.669C238.23 324.575 240.103 323.547 240.861 324.308C241.619 325.069 240.662 327.12 237.73 331.019C227.919 344.065 227.2 357.6 235.605 371.025C244.064 384.536 248.739 397.028 245.338 397.028C244.471 397.028 243.484 396.201 243.145 395.19C239.559 384.498 230.235 373.564 220.569 368.716C197.467 357.129 168.481 378.127 168.481 406.448C168.481 412.647 167.125 414.743 165.571 410.945ZM94.2997 355.455C66.3849 347.92 47.8689 319.972 46.3349 283.058C45.8475 271.328 46.0833 268.142 48.0022 260.525C50.5214 250.526 51.1944 249.422 53.6307 251.289C55.21 252.5 55.2163 253.073 53.709 258.383C52.6045 262.274 52.0789 268.446 52.099 277.289C52.1342 292.832 55.0736 306.106 61.1881 318.335C66.0532 328.065 66.7459 329.029 74.5649 336.962C81.6291 344.129 93.7172 351.067 101.413 352.372C104.678 352.926 105.693 353.575 105.693 355.107C105.693 357.567 102.486 357.665 94.2997 355.455ZM175.42 280.178C173.796 274.096 174.845 265.435 178.604 253.9C184.81 234.855 183.809 224.249 174.84 213.995C167.788 205.934 153.928 201.737 140.931 203.728C116.085 207.534 96.2751 229.723 96.2751 253.746C96.2751 262.69 97.3274 265.573 102.779 271.56C108.434 277.77 108.734 280.995 103.274 276.888C94.0281 269.933 86.4511 268.414 77.0451 271.63C71.446 273.545 69.9663 273.002 72.6567 270.018C75.0852 267.324 80.6466 264.743 85.9965 263.827L90.3325 263.084L90.1001 255.095C89.6384 239.225 95.2859 225.669 107.42 213.523L114.986 205.949L109.242 202.343C101.086 197.223 92.8204 196.527 83.3722 200.166C82.0989 200.657 81.6245 200.27 81.6245 198.74C81.6245 196.227 87.8384 193.42 95.388 192.522L100.37 191.93L98.6768 188.657C97.7458 186.857 96.7626 181.958 96.492 177.77C96.0777 171.359 96.258 170.155 97.633 170.155C98.7795 170.155 99.6361 171.954 100.508 176.194C101.191 179.516 102.597 183.888 103.633 185.91C107.251 192.973 117.164 200.615 122.709 200.615C124.067 200.615 129.139 199.609 133.98 198.38C152.275 193.737 169.17 198.001 180.455 210.111C183.195 213.051 185.541 215.308 185.668 215.125C185.795 214.943 187.142 212.614 188.661 209.949C192.825 202.646 203.52 194.313 208.729 194.313C209.615 194.313 210.34 193.627 210.34 192.789C210.34 185.052 217.453 170.572 219.998 173.126C220.771 173.902 220.532 175.43 219.197 178.234C218.15 180.434 217.083 184.708 216.828 187.731C216.431 192.416 216.652 193.324 218.322 193.869C224.549 195.903 227.02 197.295 231.166 201.107C235.614 205.195 241.132 214.798 240.047 216.56C239.15 218.018 237.719 217.514 237.088 215.519C236.106 212.413 227.924 204.676 223.421 202.595C211.735 197.195 198.333 203.529 192.252 217.326C190.838 220.534 189.905 225.813 189.365 233.66C188.681 243.598 187.944 246.898 184.201 256.764C181.341 264.301 179.629 270.736 179.238 275.407C178.634 282.647 176.718 285.04 175.42 280.178ZM60.9594 185.122C61.575 176.227 64.2638 167.412 68.6557 159.89C71.056 155.779 71.4477 154 71.2565 148.08C70.9707 139.236 74.0881 130.38 76.5997 132.901C76.9057 133.208 76.7846 135.455 76.3305 137.895C75.8765 140.334 75.8223 143.824 76.2102 145.65L76.9154 148.97L83.6439 143.881C90.2222 138.905 99.7017 134.443 103.693 134.443C106.199 134.443 106.215 134.596 103.057 128.487C101.607 125.682 100.129 120.912 99.772 117.887C99.415 114.861 98.7025 112.386 98.1886 112.386C95.9522 112.386 89.2369 115.876 86.6062 118.405C82.9363 121.933 81.993 120.965 84.3148 116.054C86.3465 111.757 91.9735 107.525 96.9977 106.517C99.3334 106.048 100.671 104.961 101.558 102.81C103.464 98.1926 110.877 90.9103 112.259 92.2977C113.066 93.1078 112.904 93.9665 111.691 95.3122C108.229 99.1519 105.74 106.508 105.716 112.968C105.676 124.044 111.746 133.127 121.485 136.568C127.328 138.632 133.083 142.993 137.065 148.375L140.706 153.295L143.867 150.289C148.381 145.996 153.229 143.807 159.704 143.136C164.846 142.603 165.342 142.738 165.342 144.662C165.342 146.28 164.443 146.919 161.491 147.4C156.772 148.168 149.052 153.345 145.241 158.296C142.454 161.917 139.941 167.805 138.691 173.643C138.331 175.327 137.509 176.415 136.787 176.164C135.9 175.856 135.623 173.339 135.866 167.815C136.265 158.762 134.498 154.095 128.546 148.478C122.473 142.747 118.611 141.301 109.334 141.285C101.989 141.272 100.09 141.69 94.136 144.633C78.2525 152.481 67.6021 168.462 64.3532 189.323C63.9403 191.974 63.1931 193.262 62.0679 193.262C60.6318 193.262 60.4755 192.114 60.9594 185.122ZM164.296 131.188C164.296 128.375 160.837 123.15 157.738 121.283C155.877 120.162 151.769 119.001 148.609 118.704C144.333 118.301 142.778 117.712 142.529 116.399C141.898 113.071 154.727 112.782 162.226 115.955C163.326 116.42 164.991 115.052 167.614 111.525C171.944 105.704 178.701 100.866 187.208 97.4951C191.912 95.6313 195.322 95.1532 204.426 95.0812L215.778 94.9914L217.106 91.8204C218.565 88.3373 223.729 83.5201 227.183 82.4197C230.193 81.4611 232.481 83.768 229.945 85.204C224.245 88.4323 221.213 95.6028 222.896 101.877C224.633 108.35 230.79 115.259 236.902 117.591C238.409 118.166 239.641 119.121 239.641 119.712C239.641 121.369 233.574 120.988 229.569 119.081C225.672 117.225 217.665 108.753 217.665 106.486C217.665 100.98 199.41 99.4391 187.849 103.969C176.555 108.394 167.435 119.834 167.435 129.576C167.435 131.335 166.863 132.343 165.865 132.343C165.002 132.343 164.296 131.823 164.296 131.188ZM163.493 89.4525C161.19 87.9853 169.619 76.326 176.839 70.9914C182.821 66.5714 191.576 62.5331 197.952 61.2532C200.113 60.8194 201.442 59.3482 203.515 55.0964C208.728 44.4027 218.113 38.7396 231.531 38.192C239.023 37.8862 239.641 38.0192 239.641 39.9372C239.641 41.645 238.928 42.0135 235.622 42.0135C230.048 42.0135 222.417 44.4856 217.559 47.8644C213.744 50.5178 209.294 56.2314 209.294 58.4755C209.294 59.0168 212.823 60.0548 217.136 60.7822C221.728 61.5567 227.908 63.5773 232.048 65.6579C240.005 69.6566 248.043 77.0644 246.312 78.8023C245.574 79.5426 243.025 78.3951 238.214 75.1569C226.939 67.568 214.521 64.8717 201.333 67.1489C188.503 69.3642 175.739 76.7641 169.353 85.6904C165.834 90.6078 165.572 90.7765 163.493 89.4525ZM32.0595 357.902C32.1377 353.714 32.6763 349.089 33.2563 347.625C34.0516 345.616 33.9316 344.455 32.7678 342.898C26.8544 334.99 22.7111 321.771 23.1462 312.202C23.3502 307.714 22.9135 306.44 19.8691 302.637C17.9373 300.224 15.8704 298.413 15.276 298.612C14.6817 298.811 13.0465 301.775 11.6423 305.199C6.33621 318.139 8.88855 336.959 17.8036 350.632C22.0359 357.123 29.4631 365.518 30.9717 365.517C31.4918 365.516 31.9813 362.089 32.0595 357.902ZM287.909 314.996C295.72 311.076 300.336 303.011 300.336 293.284C300.336 276.854 283.013 266.291 267.647 273.352C258.717 277.455 254.144 284.715 254.143 294.789C254.141 311.767 272.476 322.739 287.909 314.996ZM323.283 139.028C324.476 137.506 325.452 135.679 325.452 134.968C325.452 132.577 321.134 128.141 318.806 128.141C314.935 128.141 311.848 131.043 311.848 134.683C311.848 141.582 319.116 144.345 323.283 139.028ZM307.645 15.0128C313.129 8.01525 303.267 -1.04632 297.238 5.44973C292.826 10.2025 295.982 17.8557 302.353 17.8557C304.437 17.8557 306.129 16.9465 307.645 15.0128ZM393.472 543.372C390.315 542.136 387.21 538.404 386.593 535.107C385.809 530.909 388.378 525.539 391.953 523.904L394.519 522.731V502.141V481.551L380.433 467.442C369.226 456.217 366.591 453.041 367.535 451.899C368.49 450.743 371.662 453.399 383.773 465.496L398.824 480.53L398.567 501.323L398.311 522.116L401.673 524.168C407.637 527.808 408.767 534.827 404.198 539.86C401.358 542.988 396.529 544.57 393.472 543.372ZM401.844 537.773C404.647 534.96 404.485 531.304 401.43 528.423C398.19 525.368 393.836 525.826 391.111 529.507C386.13 536.233 395.889 543.75 401.844 537.773ZM367.717 509.475C364.784 508.232 361.032 503.344 361.032 500.766C361.032 497.296 364.128 491.915 366.838 490.676C369.261 489.568 369.403 489.019 369.403 480.784V472.066L362.601 465.3L355.799 458.533V452.009C355.799 446.436 355.498 445.389 353.734 444.827C350.763 443.881 347.427 439.214 347.431 436.011C347.437 432.42 350.891 426.809 353.634 425.935C355.661 425.289 355.799 424.46 355.799 412.925V400.605L351.613 396.503L347.427 392.4V378.66V364.921L341.934 359.634C338.912 356.726 335.167 353.808 333.612 353.15C332.057 352.493 330.004 350.439 329.05 348.587C325.4 341.504 331.956 332.071 339.579 333.439C343.657 334.171 348.474 339.484 348.474 343.25C348.474 345.369 349.975 347.646 354.001 351.637L359.528 357.115H374.568H389.608L401.364 368.757L413.12 380.398L416.504 378.642C422.593 375.481 428.507 377.985 431.096 384.819C432.016 387.248 431.877 388.581 430.384 391.645C425.479 401.713 411.262 398.763 411.262 387.678C411.262 384.226 410.191 382.791 399.995 372.589L388.729 361.316H373.371H358.013L353.044 355.539C350.311 352.362 347.811 349.778 347.49 349.797C347.168 349.817 345.766 350.784 344.375 351.946L341.845 354.06L346.651 359.001L351.458 363.942L350.903 377.071L350.349 390.201L355.167 394.883L359.985 399.566L359.991 412.214L359.998 424.862L363.14 426.656C366.41 428.524 368.357 432.161 368.357 436.403C368.357 439.25 363.657 445.343 361.462 445.343C360.361 445.343 359.985 446.888 359.985 451.413V457.483L366.787 464.249L373.589 471.016L373.595 479.974C373.602 488.828 373.639 488.953 376.744 490.727C382.495 494.011 383.59 501.283 379.083 506.249C375.994 509.652 371.288 510.987 367.717 509.475ZM377.4 503.558C379.55 500.264 378.858 496.913 375.512 494.415C372.057 491.837 368.047 492.605 365.63 496.308C364.202 498.495 364.131 499.429 365.198 502.015C367.409 507.372 374.338 508.248 377.4 503.558ZM363.049 439.425C364.241 437.903 365.217 436.076 365.217 435.365C365.217 432.576 360.885 428.538 357.892 428.538C354.899 428.538 350.567 432.576 350.567 435.365C350.567 438.154 354.899 442.192 357.892 442.192C359.873 442.192 361.61 441.26 363.049 439.425ZM424.985 393.813C428.257 392.055 429.322 387.995 427.46 384.38C425.349 380.283 421.345 379.317 417.711 382.027C414.009 384.789 413.542 389.146 416.597 392.411C419.146 395.134 421.723 395.565 424.985 393.813ZM343.242 348.712C347.084 344.855 344.947 338.297 339.31 336.651C337.53 336.132 336.175 336.737 333.816 339.105C330.112 342.823 329.948 344.339 332.853 348.045C335.506 351.431 340.23 351.735 343.242 348.712ZM348.474 498.087V488.861L342.718 483.155L336.963 477.45V464.78V452.11L330.161 445.343L323.359 438.577V414.734V390.891L305.569 373.798L287.779 356.704V344.367C287.779 336.449 288.196 331.772 288.942 331.309C291.117 329.96 291.933 333.461 291.949 344.207L291.965 354.932L309.755 372.467L327.545 390.003V413.767V437.532L333.823 443.768L340.102 450.004V462.674V475.344L346.381 481.58L352.66 487.816V497.565C352.66 506.613 352.509 507.313 350.567 507.313C348.633 507.313 348.474 506.613 348.474 498.087ZM412.389 453.127C410.618 451.632 409.169 449.741 409.169 448.926C409.169 447.796 407.487 447.444 402.089 447.444H395.009L382.729 435.087L370.45 422.729V407.227C370.45 391.886 370.424 391.714 367.971 390.778C364.688 389.525 361.032 384.745 361.032 381.706C361.032 370.382 375.853 366.749 380.237 376.998C380.897 378.543 387.617 385.808 395.17 393.144L408.903 406.481H420.987H433.071L442.214 396.503L451.357 386.524H482.56H513.762L515.37 383.404C517.362 379.538 519.894 378.122 524.816 378.122C530.071 378.122 534.745 382.773 534.745 388.002C534.745 396.798 523.792 401.93 517.56 396.054C516.096 394.674 514.661 392.792 514.37 391.873C513.9 390.384 510.534 390.237 483.743 390.528L453.644 390.855L443.684 400.769L433.724 410.682H420.646H407.568L394.503 397.521C381.49 384.412 381.43 384.368 379.606 386.608C378.599 387.846 377.775 389.419 377.775 390.104C377.775 390.79 384.054 397.591 391.728 405.218L405.68 419.085H427.601H449.523L450.714 415.915C451.511 413.797 453.197 412.205 455.802 411.112C460.217 409.261 463.089 409.687 466.998 412.773C474.474 418.676 469.448 430.639 459.492 430.639C456.116 430.639 451.462 427.364 450.496 424.309C449.869 422.327 448.819 422.236 426.526 422.236H403.211L388.4 407.06L373.589 391.885V406.291V420.696L384.856 431.969L396.122 443.243L402.384 443.236C408.241 443.23 408.761 443.026 410.429 440.085C415.655 430.865 429.052 434.808 429.052 445.566C429.052 454.515 419.281 458.949 412.389 453.127ZM423.717 450.179C426.76 446.928 426.305 442.558 422.637 439.822C415.936 434.823 408.447 444.618 414.401 450.595C417.205 453.408 420.847 453.246 423.717 450.179ZM465.991 424.141C467.81 421.684 467.913 420.914 466.79 418.191C464.355 412.293 457.056 411.567 454.191 416.939C449.894 424.998 460.543 431.498 465.991 424.141ZM529.775 392.619C533.855 387.883 530.25 380.853 524.061 381.473C517.004 382.181 514.821 391.037 520.893 394.324C524.257 396.146 527.228 395.575 529.775 392.619ZM374.066 387.973C375.775 387.314 378.822 382.353 378.822 380.227C378.822 378.142 373.732 373.92 371.218 373.92C364.757 373.92 361.842 382.432 366.928 386.448C369.827 388.737 371.278 389.046 374.066 387.973ZM335.916 395.17V370.205L325.452 359.741L314.987 349.277V341.344V333.411L309.28 327.753C304.225 322.743 302.979 320.353 305.422 320.353C305.848 320.353 308.881 322.754 312.162 325.689L318.126 331.024V339.099V347.174L329.114 358.165L340.102 369.156V394.646C340.102 419.435 340.045 420.135 338.009 420.135C335.975 420.135 335.916 419.435 335.916 395.17ZM314.711 366.817L300.336 352.361L300.332 343.447C300.329 336.448 299.888 333.808 298.278 331.157C295.693 326.902 297.329 325.642 300.851 329.177C303.252 331.587 303.476 332.592 303.476 340.986V350.161L317.341 364.116C324.967 371.791 331.359 378.792 331.545 379.672C332.365 383.548 328.143 380.324 314.711 366.817ZM430.891 360.738C423.261 352.91 416.875 346.1 416.701 345.604C416.527 345.109 416.931 344.364 417.601 343.949C418.346 343.486 424.348 348.735 433.105 357.507L447.392 371.82H456.012C462.977 371.82 464.632 372.122 464.632 373.395C464.632 374.685 462.831 374.971 454.698 374.971H444.764L430.891 360.738ZM489.427 367.591C487.944 366.42 486.436 364.53 486.076 363.39C485.459 361.44 484.428 361.316 468.841 361.316H452.261L440.295 348.712L428.33 336.108H399.114H369.899L355.276 321.403L340.654 306.699H327.743C316.012 306.699 314.866 306.531 315.185 304.861C315.493 303.246 317.123 302.988 328.604 302.736L341.672 302.449L356.308 317.178L370.945 331.907L400.26 331.867L429.575 331.828L441.61 344.551L453.644 357.273L468.992 357.838L484.339 358.402L486.014 355.15C487.872 351.546 492.45 348.712 496.417 348.712C500.139 348.712 505.251 353.436 506.028 357.593C507.745 366.781 496.772 373.39 489.427 367.591ZM500.005 364.73C503.774 361.459 503.86 358.514 500.292 354.933C496.725 351.353 493.791 351.439 490.532 355.222C488.07 358.08 488.225 361.198 490.976 364.137C493.686 367.032 497.094 367.256 500.005 364.73ZM404.398 357.025L396.088 348.607L381.656 348.819L367.224 349.03L351.133 333.641L335.043 318.252H324.054C311.994 318.252 309.601 317.775 310.456 315.54C310.903 314.369 313.712 314.051 323.586 314.051H336.148L352.342 329.806L368.537 345.561H383.382H398.227L406.898 354.31C413.905 361.379 415.295 363.287 414.139 364.25C413.004 365.195 410.987 363.699 404.398 357.025ZM545.936 346.584C544.454 345.414 542.946 343.523 542.585 342.383C541.997 340.524 540.97 340.309 532.661 340.309H523.393L516.882 332.957L510.372 325.605H488.115H465.857L457.249 316.152L448.642 306.699H417.639H386.637L374.112 294.095L361.588 281.491H352.415C343.939 281.491 343.242 281.331 343.242 279.39C343.242 277.44 343.939 277.289 352.937 277.289H362.633L375.682 290.418L388.732 303.548H419.793H450.854L459.051 312.404L467.248 321.26L489.599 321.733L511.95 322.207L519.448 329.683L526.946 337.158H534.482C541.779 337.158 542.068 337.06 543.624 334.039C545.616 330.172 548.149 328.756 553.07 328.756C558.375 328.756 563 333.403 563 338.734C563 347.041 552.584 351.833 545.936 346.584ZM557.768 343.46C561.355 339.86 560.088 334.821 554.899 332.046C553.022 331.043 551.952 331.105 549.532 332.361C544.648 334.896 543.826 339.221 547.485 343.13C550.307 346.145 554.945 346.294 557.768 343.46ZM449.483 329.281L439.308 318.252H410.426H381.544L369.359 306.173L357.175 294.095H336.604C319.017 294.095 316.033 293.866 316.033 292.519C316.033 291.169 319.146 290.944 337.765 290.944H359.496L371.496 303.022L383.497 315.101H412.425H441.353L451.397 325.605L461.442 336.108H471.932C481.724 336.108 482.422 336.248 482.422 338.209C482.422 340.181 481.724 340.309 471.04 340.309H459.658L449.483 329.281ZM539.978 314.36C537.533 313.463 533.699 309.635 533.699 308.091C533.699 306.971 528.426 306.699 506.717 306.699H479.734L474.05 300.922L468.366 295.145H429.978H391.589L379.541 282.523L367.494 269.902L359.815 269.657C353.796 269.465 352.137 269.071 352.137 267.836C352.137 266.59 353.911 266.197 360.624 265.958L369.111 265.655L381.421 278.825L393.731 291.994H432.095H470.459L476.143 297.771L481.827 303.548H507.266H532.704L533.647 301.06C534.911 297.722 539.671 294.095 542.787 294.095C546.147 294.095 551.165 296.777 552.504 299.288C553.097 300.4 553.582 302.789 553.582 304.598C553.582 308.993 552.057 311.601 548.37 313.515C545.249 315.135 542.771 315.384 539.978 314.36ZM548.349 309.85C551.089 307.1 551.01 302.714 548.167 299.677C544.526 295.786 538.724 296.994 536.813 302.04C534.254 308.794 543.3 314.917 548.349 309.85ZM493.229 292.314C490.531 291.786 485.561 287.061 485.561 285.024C485.561 283.837 477.972 283.591 441.258 283.591H396.955L385.187 270.987C374.974 260.05 372.98 258.381 370.103 258.367C368.279 258.359 366.138 257.938 365.345 257.434C362.848 255.847 365.162 254.182 369.863 254.182C374.284 254.182 374.667 254.476 386.947 267.311L399.509 280.44H442.535C468.138 280.44 485.561 280.048 485.561 279.47C485.561 278.937 486.78 277.046 488.271 275.269C490.502 272.608 491.753 272.038 495.363 272.038C500.95 272.038 504.025 274.222 505.528 279.257C507.09 284.49 504.734 289.421 499.653 291.551C497.695 292.373 495.96 292.98 495.798 292.901C495.636 292.823 494.479 292.558 493.229 292.314ZM498.522 288.707C499.949 288.054 501.689 286.133 502.389 284.438C503.489 281.771 503.379 280.977 501.571 278.535C498.845 274.853 493.83 274.241 490.855 277.227C487.786 280.308 488.057 285.031 491.458 287.716C494.654 290.239 495.049 290.295 498.522 288.707ZM314.373 282.628C314.135 282.388 313.941 281.561 313.941 280.79C313.941 279.798 315.572 279.39 319.541 279.39H325.142L343.123 261.009L361.104 242.628H370.295H379.486L392.137 255.757L404.789 268.887H419.966H435.144L447.11 256.282L459.075 243.678H483.703H508.33L509.683 240.398C511.304 236.472 516.795 233.792 521.221 234.768C524.898 235.579 529.513 240.847 529.513 244.235C529.513 255.467 513.468 259.586 509.59 249.349L508.635 246.829L484.802 246.887L460.969 246.944L449.458 259.388L437.947 271.832L420.322 271.935L402.696 272.038L390.127 258.908L377.559 245.779H370.435H363.311L345.332 264.072L327.354 282.364L321.08 282.715C317.629 282.908 314.611 282.869 314.373 282.628ZM524.205 249.314C525.398 247.791 526.374 245.643 526.374 244.539C526.374 241.863 521.786 237.376 519.048 237.376C516.225 237.376 511.723 241.895 511.723 244.729C511.723 247.733 516.291 252.081 519.448 252.081C520.997 252.081 522.906 250.97 524.205 249.314ZM308.359 271.337C306.639 269.611 308.06 268.887 313.167 268.887H318.671L337.497 249.936L356.322 230.985L376.578 231.173L396.833 231.361L398.355 228.206C399.932 224.938 403.545 222.672 407.177 222.672C410.047 222.672 415.06 225.393 415.811 227.359C416.245 228.492 417.922 228.985 421.432 229.011C426.35 229.047 426.571 228.904 434.284 220.648L442.133 212.248L463.585 212C486.878 211.731 488.701 211.551 488.701 209.513C488.701 207.207 494.944 202.715 498.15 202.715C505.173 202.715 510.517 208.876 509.102 215.34C508.174 219.583 503.009 223.722 498.642 223.722C494.872 223.722 488.701 219.426 488.701 216.801C488.701 215.572 484.885 215.319 466.287 215.319H443.872L436.313 223.722L428.754 232.125H423.147C417.838 232.125 417.541 232.266 417.541 234.798C417.541 241.13 407.323 245.842 402.092 241.922C400.606 240.808 398.882 238.975 398.262 237.849C397.642 236.722 397.039 235.626 396.922 235.413C396.806 235.199 387.858 235.1 377.039 235.191L357.369 235.359L339.045 253.698L320.721 272.038H314.889C311.681 272.038 308.743 271.722 308.359 271.337ZM411.644 238.35C416.929 234.178 413.933 225.823 407.152 225.823C403.764 225.823 399.751 229.912 399.751 233.364C399.751 235.956 404.305 240.527 406.888 240.527C407.987 240.527 410.128 239.548 411.644 238.35ZM503.118 218.936C508.081 215.447 504.8 205.866 498.642 205.866C492.573 205.866 489.587 214.181 494.13 218.429C496.867 220.989 499.951 221.163 503.118 218.936ZM303.099 265.007C302.699 264.606 305.074 261.538 308.376 258.19C313.071 253.428 314.103 251.824 313.113 250.831C312.417 250.132 311.848 247.506 311.848 244.996C311.848 239.875 314.854 235.876 319.606 234.679C321.094 234.304 322.312 233.504 322.312 232.902C322.312 232.299 326.55 227.408 331.73 222.034L341.149 212.263V196.706V181.15L353.706 168.579L366.264 156.008V139.78V123.553L380.391 109.398L394.519 95.2428V76.5765C394.519 58.6251 394.436 57.8837 392.353 57.2204C389.719 56.3811 386.156 50.7839 386.151 47.4756C386.141 41.6881 391.178 36.7618 397.104 36.7618C400.729 36.7618 405.845 41.5319 406.61 45.6254C407.46 50.1735 404.986 54.9767 400.924 56.6656L397.812 57.9592L398.421 77.3506L399.03 96.7421L384.217 111.541L369.403 126.34V142.224V158.109L356.846 170.68L344.288 183.251V198.875V214.5L334.305 224.423L324.321 234.346L326.718 236.351C328.036 237.454 329.595 238.373 330.183 238.392C330.77 238.411 335.469 234.173 340.625 228.974L350 219.521H364.023H378.045L395.801 201.14L413.556 182.759H431.271H448.987L449.941 180.239C452.388 173.781 461.636 172.238 466.805 177.426C470.787 181.423 470.944 186.562 467.22 191.004C462.439 196.707 453.664 196.244 450.51 190.122C449.167 187.514 448.374 187.221 440.983 186.594C436.55 186.218 429.031 185.91 424.275 185.91H415.628L397.421 204.816L379.214 223.722H365.131H351.049L341.39 233.457C334.827 240.072 331.73 243.966 331.73 245.605C331.73 251.221 325.818 255.85 319.819 254.929C316.97 254.492 315.856 255.144 311.018 260.082C305.479 265.737 304.458 266.371 303.099 265.007ZM326.498 249.98C329.509 246.958 329.207 242.217 325.834 239.553C321.556 236.176 317.908 237.114 315.158 242.296C313.422 245.568 313.615 246.598 316.509 249.503C319.62 252.626 323.67 252.819 326.498 249.98ZM463.851 189.849C464.793 189.126 465.87 187.26 466.245 185.7C466.772 183.501 466.326 182.263 464.257 180.186C460.901 176.817 457.93 176.786 454.643 180.085C451.509 183.231 451.433 184.808 454.243 188.394C456.618 191.424 460.943 192.079 463.851 189.849ZM401.368 52.0395C402.781 50.6215 403.937 48.4731 403.937 47.2652C403.937 44.4314 399.435 39.9128 396.612 39.9128C393.874 39.9128 389.286 44.399 389.286 47.0758C389.286 50.2433 393.303 54.6176 396.212 54.6176C397.635 54.6176 399.955 53.4574 401.368 52.0395ZM298.655 258.822C299.004 257.909 299.3 252.828 299.312 247.531L299.335 237.902L311.973 224.501L324.612 211.101L324.476 196.667L324.34 182.234L337.976 168.594L351.613 154.955V135.677V116.398L359.976 107.303L368.338 98.2066L368.347 89.6451L368.357 81.0835L364.809 78.9828C357.318 74.5465 357.846 63.6374 365.712 60.3388C370.408 58.3695 373.928 59.2468 377.255 63.2155C381.789 68.6246 380.536 76.2378 374.604 79.3166C371.497 80.9294 371.496 80.9336 371.496 90.6526V100.375L363.069 109.499L354.642 118.623L354.826 137.681L355.01 156.738L341.8 170.026L328.591 183.313V198.02V212.726L316.033 225.297L303.476 237.869V247.438C303.476 255.375 303.149 257.304 301.562 258.745C299.144 260.942 297.831 260.977 298.655 258.822ZM374.636 74.574C380.737 68.4506 371.44 58.9433 365.038 64.7586C360.864 68.5506 364.196 76.6747 369.927 76.6747C371.365 76.6747 373.485 75.7294 374.636 74.574ZM405.681 258.733C403.768 256.813 405.846 256.282 415.286 256.282H425.588L440.494 240.527L455.4 224.772H469.434C482.771 224.772 483.468 224.877 483.468 226.873C483.468 228.865 482.771 228.974 470.041 228.974H456.613L442.222 244.204L427.831 259.433H417.105C411.205 259.433 406.065 259.118 405.681 258.733ZM288.476 256.633C288.093 256.247 287.779 250.213 287.779 243.224V230.515L299.813 218.47L311.848 206.426V191.163V175.901L325.452 162.277L339.056 148.653V116.603L339.056 84.5522L335.439 81.6558C330.973 78.079 329.75 73.1307 332.172 68.4307C335.455 62.0592 343.406 60.9233 348.554 66.0905C353.723 71.2785 352.187 80.5616 345.752 83.017L343.242 83.975V116.839V149.702L329.114 163.853L314.987 178.003V193.266V208.528L303.476 220.046L291.965 231.564V244.448C291.965 254.485 291.656 257.333 290.569 257.333C289.802 257.333 288.86 257.018 288.476 256.633ZM345.717 78.6991C349.253 75.9072 349.358 71.5723 345.967 68.3747C342.706 65.2996 338.373 65.7776 335.604 69.518C333.793 71.9629 333.685 72.7521 334.79 75.4303C335.973 78.2962 339.021 80.6361 341.792 80.8049C342.434 80.844 344.2 79.8964 345.717 78.6991ZM407.84 214.021C407.367 212.676 424.355 194.058 426.595 193.467C427.263 193.29 428.147 193.692 428.558 194.36C429.003 195.082 426.603 198.331 422.639 202.376C413.501 211.697 408.427 215.69 407.84 214.021ZM355.45 207.267C355.067 206.882 354.753 201.32 354.753 194.907V183.248L366.264 171.73L377.775 160.212V144.464V128.716L385.336 121.076C389.494 116.874 393.497 113.436 394.231 113.436C397.064 113.436 395.288 116.394 388.24 123.415L380.914 130.711V146.513V162.315L369.927 173.306L358.939 184.297V196.132C358.939 205.294 358.624 207.967 357.543 207.967C356.776 207.967 355.834 207.652 355.45 207.267ZM373.451 203.334C368.473 201.719 365.61 195.807 367.307 190.646C368.72 186.351 371.872 183.809 375.786 183.809C377.957 183.809 380.558 181.628 387.689 173.831C396.776 163.895 396.836 163.853 401.819 163.853C406.406 163.853 406.932 163.587 408.14 160.66C409.901 156.394 412.981 154.4 417.811 154.4C422.969 154.4 426.557 156.822 428.028 161.296C430.099 167.594 426.402 173.775 419.822 175.014C415.385 175.849 409.97 173.28 408.268 169.531C407.349 167.506 406.33 167.004 403.139 167.004C399.056 167.004 397.239 168.504 385.736 181.377L382.747 184.722L384.97 187.558C388.124 191.582 387.939 197.479 384.552 200.879C381.32 204.122 378.086 204.837 373.451 203.334ZM381.961 198.514C388.014 192.438 379.85 183.622 372.776 188.595C369.954 190.579 369.642 195.877 372.182 198.694C374.467 201.228 379.346 201.138 381.961 198.514ZM422.109 170.079C425.482 167.415 425.784 162.674 422.773 159.651C418.93 155.794 412.396 157.94 410.757 163.598C410.239 165.384 410.842 166.744 413.202 169.112C416.906 172.83 418.416 172.994 422.109 170.079ZM443.872 172.985C443 171.93 445.583 168.768 455.093 159.247L467.448 146.879L466.958 141.76C466.515 137.136 466.776 136.331 469.655 133.441C473.956 129.124 478.987 129.068 483.69 133.285C486.498 135.804 487.083 137.091 487.083 140.745C487.083 148.295 479.118 153.482 472.765 150.07C470.777 149.002 469.445 150.09 458.616 161.624C452.041 168.626 446.289 174.356 445.834 174.356C445.378 174.356 444.495 173.739 443.872 172.985ZM479.613 146.89C482.632 145.295 483.433 143.959 483.452 140.483C483.472 137.022 480.166 133.393 476.995 133.393C473.719 133.393 469.864 137.425 469.864 140.852C469.864 142.725 470.836 144.511 472.622 145.921C475.807 148.436 476.504 148.532 479.613 146.89ZM391.198 151.834L390.856 144.145L406.169 128.095C421.076 112.471 421.468 111.943 420.966 108.186C419.914 100.313 425.98 94.5714 433.794 96.0427C437.877 96.8117 441.599 101.495 441.606 105.874C441.616 112.268 435.288 117.564 429.322 116.153C427.735 115.778 425.947 115.368 425.35 115.242C424.752 115.115 417.571 121.927 409.391 130.379L394.519 145.747V152.062C394.519 156.554 394.089 158.542 393.029 158.95C391.842 159.407 391.471 157.963 391.198 151.834ZM435.902 110.858C437.314 109.44 438.47 107.292 438.47 106.084C438.47 103.25 433.968 98.7318 431.145 98.7318C428.322 98.7318 423.82 103.25 423.82 106.084C423.82 108.918 428.322 113.436 431.145 113.436C432.348 113.436 434.489 112.276 435.902 110.858Z" fill="#062259"/>
</svg>
